master.ufo
<glyph name="numbersign" format="1">
	<unicode hex="0023"/>
	<advance width="524"/>
	<outline>
		<contour>
			<point x="98" y="0" type="line"/>
			<point x="128" y="0" type="line"/>
			<point x="228" y="650" type="line"/>
			<point x="198" y="650" type="line"/>
		</contour>
		<contour>
			<point x="25" y="261" type="line"/>
			<point x="25" y="181" type="line"/>
			<point x="467" y="181" type="line"/>
			<point x="467" y="261" type="line"/>
		</contour>
		<contour>
			<point x="499" y="392" type="line"/>
			<point x="499" y="472" type="line"/>
			<point x="57" y="472" type="line"/>
			<point x="57" y="392" type="line"/>
		</contour>
		<contour>
			<point x="294" y="0" type="line"/>
			<point x="324" y="0" type="line"/>
			<point x="424" y="650" type="line"/>
			<point x="394" y="650" type="line"/>
		</contour>
	</outline>
</glyph>
<glyph name="percent" format="1">
	<unicode hex="0025"/>
	<advance width="860"/>
	<outline>
		<contour>
			<point x="141" y="452" type="curve" smooth="yes"/>
			<point x="141" y="599"/>
			<point x="175" y="630"/>
			<point x="210" y="630" type="curve" smooth="yes"/>
			<point x="245" y="630"/>
			<point x="278" y="598"/>
			<point x="278" y="452" type="curve" smooth="yes"/>
			<point x="278" y="307"/>
			<point x="245" y="274"/>
			<point x="210" y="274" type="curve" smooth="yes"/>
			<point x="175" y="274"/>
			<point x="141" y="307"/>
		</contour>
		<contour>
			<point x="210" y="660" type="curve" smooth="yes"/>
			<point x="140" y="660"/>
			<point x="70" y="600"/>
			<point x="70" y="452" type="curve" smooth="yes"/>
			<point x="70" y="305"/>
			<point x="140" y="245"/>
			<point x="210" y="245" type="curve" smooth="yes"/>
			<point x="280" y="245"/>
			<point x="348" y="305"/>
			<point x="348" y="452" type="curve" smooth="yes"/>
			<point x="348" y="600"/>
			<point x="280" y="660"/>
		</contour>
		<contour>
			<point x="583" y="198" type="curve" smooth="yes"/>
			<point x="583" y="345"/>
			<point x="617" y="376"/>
			<point x="652" y="376" type="curve" smooth="yes"/>
			<point x="687" y="376"/>
			<point x="720" y="344"/>
			<point x="720" y="198" type="curve" smooth="yes"/>
			<point x="720" y="53"/>
			<point x="687" y="20"/>
			<point x="652" y="20" type="curve" smooth="yes"/>
			<point x="617" y="20"/>
			<point x="583" y="53"/>
		</contour>
		<contour>
			<point x="652" y="406" type="curve" smooth="yes"/>
			<point x="582" y="406"/>
			<point x="512" y="346"/>
			<point x="512" y="198" type="curve" smooth="yes"/>
			<point x="512" y="51"/>
			<point x="582" y="-9"/>
			<point x="652" y="-9" type="curve" smooth="yes"/>
			<point x="722" y="-9"/>
			<point x="790" y="51"/>
			<point x="790" y="198" type="curve" smooth="yes"/>
			<point x="790" y="346"/>
			<point x="722" y="406"/>
		</contour>
		<component base="fraction" xOffset="367"/>
	</outline>
</glyph>
<glyph name="ampersand" format="1">
	<unicode hex="0026"/>
	<advance width="720"/>
	<outline>
		<contour>
			<point x="312" y="220" type="curve" smooth="yes"/>
			<point x="364" y="162"/>
			<point x="413" y="106"/>
			<point x="479" y="33" type="curve" smooth="yes"/>
			<point x="511" y="-1"/>
			<point x="542" y="-13"/>
			<point x="594" y="-13" type="curve" smooth="yes"/>
			<point x="620" y="-13"/>
			<point x="640" y="-10"/>
			<point x="669" y="-3" type="curve"/>
			<point x="670" y="22" type="line"/>
			<point x="568" y="29" type="line"/>
			<point x="611" y="15" type="line"/>
			<point x="499" y="132"/>
			<point x="436" y="200"/>
			<point x="350" y="294" type="curve" smooth="yes"/>
			<point x="288" y="362"/>
			<point x="258" y="394"/>
			<point x="219" y="442" type="curve" smooth="yes"/>
			<point x="182" y="489"/>
			<point x="174" y="520"/>
			<point x="174" y="556" type="curve" smooth="yes"/>
			<point x="174" y="610"/>
			<point x="215" y="650"/>
			<point x="266" y="650" type="curve" smooth="yes"/>
			<point x="316" y="650"/>
			<point x="354" y="614"/>
			<point x="354" y="551" type="curve" smooth="yes"/>
			<point x="354" y="483"/>
			<point x="300" y="437"/>
			<point x="234" y="395" type="curve"/>
			<point x="245" y="370" type="line"/>
			<point x="365" y="431"/>
			<point x="418" y="483"/>
			<point x="418" y="557" type="curve" smooth="yes"/>
			<point x="418" y="632"/>
			<point x="365" y="685"/>
			<point x="267" y="685" type="curve" smooth="yes"/>
			<point x="174" y="685"/>
			<point x="105" y="631"/>
			<point x="105" y="544" type="curve" smooth="yes"/>
			<point x="105" y="491"/>
			<point x="124" y="440"/>
			<point x="174" y="383" type="curve" smooth="yes"/>
			<point x="221" y="329"/>
			<point x="254" y="289"/>
		</contour>
		<contour>
			<point x="448" y="134" type="curve"/>
			<point x="474" y="118" type="line"/>
			<point x="533" y="200"/>
			<point x="574" y="285"/>
			<point x="598" y="398" type="curve"/>
			<point x="556" y="398" type="line"/>
			<point x="537" y="297"/>
			<point x="497" y="205"/>
		</contour>
		<contour>
			<point x="218" y="362" type="curve"/>
			<point x="201" y="387" type="line"/>
			<point x="88" y="337"/>
			<point x="27" y="266"/>
			<point x="27" y="170" type="curve" smooth="yes"/>
			<point x="27" y="68"/>
			<point x="114" y="-13"/>
			<point x="239" y="-13" type="curve" smooth="yes"/>
			<point x="345" y="-13"/>
			<point x="419" y="42"/>
			<point x="461" y="108" type="curve"/>
			<point x="436" y="127" type="line"/>
			<point x="400" y="79"/>
			<point x="333" y="50"/>
			<point x="265" y="50" type="curve" smooth="yes"/>
			<point x="165" y="50"/>
			<point x="111" y="123"/>
			<point x="111" y="200" type="curve" smooth="yes"/>
			<point x="111" y="251"/>
			<point x="130" y="319"/>
		</contour>
		<contour>
			<point x="589" y="381" type="line"/>
			<point x="674" y="396" type="line"/>
			<point x="674" y="429" type="line"/>
			<point x="472" y="429" type="line"/>
			<point x="472" y="396" type="line"/>
			<point x="569" y="381" type="line"/>
		</contour>
	</outline>
</glyph>
<glyph name="quotesingle" format="1">
	<unicode hex="0027"/>
	<advance width="180"/>
	<outline>
		<contour>
			<point x="90" y="737" type="curve" smooth="yes"/>
			<point x="59" y="737"/>
			<point x="40" y="719"/>
			<point x="40" y="676" type="curve" smooth="yes"/>
			<point x="40" y="638"/>
			<point x="58" y="535"/>
			<point x="65" y="500" type="curve" smooth="yes"/>
			<point x="77" y="431" type="line"/>
			<point x="103" y="431" type="line"/>
			<point x="115" y="500" type="line" smooth="yes"/>
			<point x="121" y="534"/>
			<point x="140" y="638"/>
			<point x="140" y="676" type="curve" smooth="yes"/>
			<point x="140" y="719"/>
			<point x="121" y="737"/>
		</contour>
	</outline>
</glyph>
<glyph name="parenleft" format="1">
	<unicode hex="0028"/>
	<advance width="337"/>
	<outline>
		<contour>
			<point x="158" y="278" type="curve" smooth="yes"/>
			<point x="158" y="441"/>
			<point x="187" y="562"/>
			<point x="307" y="735" type="curve"/>
			<point x="293" y="748" type="line"/>
			<point x="150" y="616"/>
			<point x="80" y="465"/>
			<point x="80" y="278" type="curve" smooth="yes"/>
			<point x="80" y="91"/>
			<point x="150" y="-59"/>
			<point x="293" y="-192" type="curve"/>
			<point x="307" y="-179" type="line"/>
			<point x="190" y="-8"/>
			<point x="158" y="115"/>
		</contour>
	</outline>
</glyph>
<glyph name="slash" format="1">
	<unicode hex="002F"/>
	<advance width="327"/>
	<outline>
		<contour>
			<point x="6" y="-160" type="line"/>
			<point x="54" y="-160" type="line"/>
			<point x="321" y="710" type="line"/>
			<point x="273" y="710" type="line"/>
		</contour>
	</outline>
</glyph>
<glyph name="less" format="1">
	<unicode hex="003C"/>
	<advance width="530"/>
	<outline>
		<contour>
			<point x="58" y="315" type="line"/>
			<point x="447" y="88" type="line"/>
			<point x="468" y="123" type="line"/>
			<point x="113" y="325" type="line"/>
			<point x="113" y="335" type="line"/>
			<point x="468" y="537" type="line"/>
			<point x="447" y="572" type="line"/>
			<point x="58" y="345" type="line"/>
		</contour>
	</outline>
</glyph>
<glyph name="question" format="1">
	<unicode hex="003F"/>
	<advance width="414"/>
	<outline>
		<contour>
			<point x="148" y="-13" type="curve" smooth="yes"/>
			<point x="183" y="-13"/>
			<point x="211" y="16"/>
			<point x="211" y="50" type="curve" smooth="yes"/>
			<point x="211" y="84"/>
			<point x="183" y="114"/>
			<point x="148" y="114" type="curve" smooth="yes"/>
			<point x="113" y="114"/>
			<point x="85" y="84"/>
			<point x="85" y="50" type="curve" smooth="yes"/>
			<point x="85" y="16"/>
			<point x="113" y="-13"/>
		</contour>
		<contour>
			<point x="346" y="465" type="curve" smooth="yes"/>
			<point x="346" y="602"/>
			<point x="187" y="679"/>
			<point x="118" y="685" type="curve"/>
			<point x="86" y="677"/>
			<point x="69" y="663"/>
			<point x="69" y="632" type="curve" smooth="yes"/>
			<point x="69" y="608"/>
			<point x="83" y="589"/>
			<point x="137" y="579" type="curve" smooth="yes"/>
			<point x="336" y="545" type="line"/>
			<point x="222" y="616" type="line"/>
			<point x="263" y="583"/>
			<point x="303" y="531"/>
			<point x="304" y="483" type="curve" smooth="yes"/>
			<point x="304" y="447"/>
			<point x="282" y="425"/>
			<point x="240" y="410" type="curve" smooth="yes"/>
			<point x="189" y="390" type="line" smooth="yes"/>
			<point x="129" y="370"/>
			<point x="109" y="350"/>
			<point x="109" y="319" type="curve" smooth="yes"/>
			<point x="109" y="309"/>
			<point x="113" y="293"/>
			<point x="125" y="254" type="curve" smooth="yes"/>
			<point x="139" y="212" type="line"/>
			<point x="165" y="212" type="line"/>
			<point x="166" y="268" type="line" smooth="yes"/>
			<point x="166" y="300"/>
			<point x="172" y="310"/>
			<point x="218" y="326" type="curve" smooth="yes"/>
			<point x="251" y="338" type="line" smooth="yes"/>
			<point x="312" y="360"/>
			<point x="346" y="403"/>
		</contour>
	</outline>
</glyph>
<glyph name="B" format="1">
	<unicode hex="0042"/>
	<advance width="628"/>
	<outline>
		<contour>
			<point x="140" y="314" type="line" smooth="yes"/>
			<point x="140" y="208"/>
			<point x="140" y="102"/>
			<point x="137" y="0" type="curve"/>
			<point x="233" y="0" type="line"/>
			<point x="230" y="104"/>
			<point x="230" y="210"/>
			<point x="230" y="329" type="curve" smooth="yes"/>
			<point x="230" y="364" type="line" smooth="yes"/>
			<point x="230" y="468"/>
			<point x="230" y="570"/>
			<point x="233" y="670" type="curve"/>
			<point x="137" y="670" type="line"/>
			<point x="140" y="568"/>
			<point x="140" y="466"/>
			<point x="140" y="364" type="curve" smooth="yes"/>
		</contour>
		<contour>
			<point x="175" y="624" type="line"/>
			<point x="185" y="624" type="line"/>
			<point x="185" y="670" type="line"/>
			<point x="45" y="670" type="line"/>
			<point x="45" y="639" type="line"/>
		</contour>
		<contour>
			<point x="175" y="46" type="line"/>
			<point x="45" y="31" type="line"/>
			<point x="45" y="0" type="line"/>
			<point x="185" y="0" type="line"/>
			<point x="185" y="46" type="line"/>
		</contour>
		<contour>
			<point x="185" y="327" type="line"/>
			<point x="287" y="327" type="line" smooth="yes"/>
			<point x="427" y="327"/>
			<point x="488" y="278"/>
			<point x="488" y="181" type="curve" smooth="yes"/>
			<point x="488" y="88"/>
			<point x="425" y="37"/>
			<point x="295" y="37" type="curve" smooth="yes"/>
			<point x="185" y="37" type="line"/>
			<point x="185" y="0" type="line"/>
			<point x="319" y="0" type="line" smooth="yes"/>
			<point x="508" y="0"/>
			<point x="583" y="92"/>
			<point x="583" y="183" type="curve" smooth="yes"/>
			<point x="583" y="269"/>
			<point x="517" y="338"/>
			<point x="356" y="352" type="curve"/>
			<point x="356" y="343" type="line"/>
			<point x="495" y="360"/>
			<point x="550" y="429"/>
			<point x="550" y="506" type="curve" smooth="yes"/>
			<point x="550" y="602"/>
			<point x="470" y="670"/>
			<point x="333" y="670" type="curve" smooth="yes"/>
			<point x="185" y="670" type="line"/>
			<point x="185" y="633" type="line"/>
			<point x="304" y="633" type="line" smooth="yes"/>
			<point x="407" y="633"/>
			<point x="460" y="598"/>
			<point x="460" y="502" type="curve" smooth="yes"/>
			<point x="460" y="407"/>
			<point x="407" y="365"/>
			<point x="284" y="365" type="curve" smooth="yes"/>
			<point x="185" y="365" type="line"/>
		</contour>
	</outline>
</glyph>
<glyph name="D" format="1">
	<unicode hex="0044"/>
	<advance width="710"/>
	<outline>
		<contour>
			<point x="140" y="322" type="line" smooth="yes"/>
			<point x="140" y="205"/>
			<point x="140" y="101"/>
			<point x="137" y="0" type="curve"/>
			<point x="233" y="0" type="line"/>
			<point x="230" y="103"/>
			<point x="230" y="207"/>
			<point x="230" y="322" type="curve" smooth="yes"/>
			<point x="230" y="360" type="line" smooth="yes"/>
			<point x="230" y="465"/>
			<point x="230" y="569"/>
			<point x="233" y="670" type="curve"/>
			<point x="137" y="670" type="line"/>
			<point x="140" y="567"/>
			<point x="140" y="463"/>
			<point x="140" y="360" type="curve" smooth="yes"/>
		</contour>
		<contour>
			<point x="175" y="624" type="line"/>
			<point x="185" y="624" type="line"/>
			<point x="185" y="670" type="line"/>
			<point x="45" y="670" type="line"/>
			<point x="45" y="639" type="line"/>
		</contour>
		<contour>
			<point x="175" y="46" type="line"/>
			<point x="45" y="31" type="line"/>
			<point x="45" y="0" type="line"/>
			<point x="185" y="0" type="line"/>
			<point x="185" y="46" type="line"/>
		</contour>
		<contour>
			<point x="185" y="0" type="line"/>
			<point x="320" y="0" type="line" smooth="yes"/>
			<point x="514" y="0"/>
			<point x="662" y="118"/>
			<point x="662" y="334" type="curve" smooth="yes"/>
			<point x="662" y="552"/>
			<point x="530" y="670"/>
			<point x="340" y="670" type="curve" smooth="yes"/>
			<point x="185" y="670" type="line"/>
			<point x="185" y="633" type="line"/>
			<point x="323" y="633" type="line" smooth="yes"/>
			<point x="471" y="633"/>
			<point x="557" y="529"/>
			<point x="557" y="334" type="curve" smooth="yes"/>
			<point x="557" y="146"/>
			<point x="471" y="37"/>
			<point x="314" y="37" type="curve" smooth="yes"/>
			<point x="185" y="37" type="line"/>
		</contour>
	</outline>
</glyph>
<glyph name="G" format="1">
	<unicode hex="0047"/>
	<advance width="682"/>
	<outline>
		<contour>
			<point x="537" y="277" type="line"/>
			<point x="557" y="277" type="line"/>
			<point x="667" y="287" type="line"/>
			<point x="667" y="318" type="line"/>
			<point x="407" y="318" type="line"/>
			<point x="407" y="287" type="line"/>
		</contour>
		<contour>
			<point x="604" y="88" type="line" smooth="yes"/>
			<point x="604" y="166"/>
			<point x="605" y="243"/>
			<point x="607" y="318" type="curve"/>
			<point x="511" y="318" type="line"/>
			<point x="513" y="242"/>
			<point x="514" y="164"/>
			<point x="514" y="88" type="curve" smooth="yes"/>
			<point x="514" y="26" type="line"/>
			<point x="551" y="59" type="line"/>
			<point x="498" y="38"/>
			<point x="456" y="28"/>
			<point x="403" y="28" type="curve" smooth="yes"/>
			<point x="247" y="28"/>
			<point x="153" y="146"/>
			<point x="153" y="335" type="curve" smooth="yes"/>
			<point x="153" y="532"/>
			<point x="256" y="643"/>
			<point x="399" y="643" type="curve" smooth="yes"/>
			<point x="463" y="643"/>
			<point x="515" y="621"/>
			<point x="569" y="571" type="curve"/>
			<point x="569" y="624" type="line"/>
			<point x="501" y="651" type="line"/>
			<point x="536" y="488" type="line"/>
			<point x="589" y="488" type="line"/>
			<point x="589" y="637" type="line"/>
			<point x="535" y="669"/>
			<point x="477" y="685"/>
			<point x="389" y="685" type="curve" smooth="yes"/>
			<point x="192" y="685"/>
			<point x="48" y="537"/>
			<point x="48" y="335" type="curve" smooth="yes"/>
			<point x="48" y="134"/>
			<point x="185" y="-15"/>
			<point x="388" y="-15" type="curve" smooth="yes"/>
			<point x="469" y="-15"/>
			<point x="536" y="8"/>
			<point x="604" y="44" type="curve"/>
		</contour>
	</outline>
</glyph>
<glyph name="O" format="1">
	<unicode hex="004F"/>
	<advance width="707"/>
	<outline>
		<contour>
			<point x="153" y="335" type="curve" smooth="yes"/>
			<point x="153" y="490"/>
			<point x="213" y="643"/>
			<point x="354" y="643" type="curve" smooth="yes"/>
			<point x="495" y="643"/>
			<point x="554" y="490"/>
			<point x="554" y="335" type="curve" smooth="yes"/>
			<point x="554" y="180"/>
			<point x="495" y="27"/>
			<point x="354" y="27" type="curve" smooth="yes"/>
			<point x="213" y="27"/>
			<point x="153" y="180"/>
		</contour>
		<contour>
			<point x="354" y="685" type="curve" smooth="yes"/>
			<point x="200" y="685"/>
			<point x="48" y="554"/>
			<point x="48" y="335" type="curve" smooth="yes"/>
			<point x="48" y="107"/>
			<point x="199" y="-15"/>
			<point x="354" y="-15" type="curve" smooth="yes"/>
			<point x="509" y="-15"/>
			<point x="659" y="116"/>
			<point x="659" y="335" type="curve" smooth="yes"/>
			<point x="659" y="563"/>
			<point x="508" y="685"/>
		</contour>
	</outline>
</glyph>
<glyph name="P" format="1">
	<unicode hex="0050"/>
	<advance width="588"/>
	<outline>
		<contour>
			<point x="175" y="624" type="line"/>
			<point x="185" y="624" type="line"/>
			<point x="185" y="670" type="line"/>
			<point x="45" y="670" type="line"/>
			<point x="45" y="639" type="line"/>
		</contour>
		<contour>
			<point x="175" y="46" type="line"/>
			<point x="45" y="31" type="line"/>
			<point x="45" y="0" type="line"/>
			<point x="325" y="0" type="line"/>
			<point x="325" y="31" type="line"/>
			<point x="195" y="46" type="line"/>
		</contour>
		<contour>
			<point x="140" y="310" type="line" smooth="yes"/>
			<point x="140" y="205"/>
			<point x="140" y="101"/>
			<point x="137" y="0" type="curve"/>
			<point x="233" y="0" type="line"/>
			<point x="230" y="103"/>
			<point x="230" y="197"/>
			<point x="230" y="299" type="curve" smooth="yes"/>
			<point x="230" y="360" type="line" smooth="yes"/>
			<point x="230" y="465"/>
			<point x="230" y="569"/>
			<point x="233" y="670" type="curve"/>
			<point x="137" y="670" type="line"/>
			<point x="140" y="567"/>
			<point x="140" y="463"/>
			<point x="140" y="360" type="curve" smooth="yes"/>
		</contour>
		<contour>
			<point x="565" y="471" type="curve" smooth="yes"/>
			<point x="565" y="591"/>
			<point x="480" y="670"/>
			<point x="314" y="670" type="curve" smooth="yes"/>
			<point x="185" y="670" type="line"/>
			<point x="185" y="633" type="line"/>
			<point x="295" y="633" type="line" smooth="yes"/>
			<point x="416" y="633"/>
			<point x="470" y="574"/>
			<point x="470" y="471" type="curve" smooth="yes"/>
			<point x="470" y="373"/>
			<point x="422" y="307"/>
			<point x="299" y="307" type="curve" smooth="yes"/>
			<point x="185" y="307" type="line"/>
			<point x="185" y="269" type="line"/>
			<point x="284" y="269" type="line" smooth="yes"/>
			<point x="488" y="269"/>
			<point x="565" y="361"/>
		</contour>
	</outline>
</glyph>
<glyph name="Q" format="1">
	<unicode hex="0051"/>
	<advance width="707"/>
	<outline>
		<contour>
			<point x="501" y="-217" type="curve" smooth="yes"/>
			<point x="541" y="-217"/>
			<point x="588" y="-205"/>
			<point x="622" y="-183" type="curve"/>
			<point x="616" y="-161" type="line"/>
			<point x="584" y="-170"/>
			<point x="562" y="-173"/>
			<point x="542" y="-173" type="curve" smooth="yes"/>
			<point x="445" y="-173"/>
			<point x="387" y="-108"/>
			<point x="394" y="9" type="curve"/>
			<point x="304" y="24" type="line"/>
			<point x="304" y="-8" type="line" smooth="yes"/>
			<point x="304" y="-119"/>
			<point x="374" y="-217"/>
		</contour>
		<component base="O"/>
	</outline>
</glyph>
<glyph name="T" format="1">
	<unicode hex="0054"/>
	<advance width="602"/>
	<outline>
		<contour>
			<point x="291" y="46" type="line"/>
			<point x="151" y="31" type="line"/>
			<point x="151" y="0" type="line"/>
			<point x="451" y="0" type="line"/>
			<point x="451" y="31" type="line"/>
			<point x="311" y="46" type="line"/>
		</contour>
		<contour>
			<point x="256" y="310" type="line" smooth="yes"/>
			<point x="256" y="205"/>
			<point x="256" y="101"/>
			<point x="253" y="0" type="curve"/>
			<point x="349" y="0" type="line"/>
			<point x="346" y="103"/>
			<point x="346" y="207"/>
			<point x="346" y="310" type="curve" smooth="yes"/>
			<point x="346" y="360" type="line" smooth="yes"/>
			<point x="346" y="465"/>
			<point x="346" y="569"/>
			<point x="349" y="670" type="curve"/>
			<point x="253" y="670" type="line"/>
			<point x="256" y="567"/>
			<point x="256" y="463"/>
			<point x="256" y="360" type="curve" smooth="yes"/>
		</contour>
		<contour>
			<point x="539" y="628" type="line"/>
			<point x="490" y="670" type="line"/>
			<point x="537" y="488" type="line"/>
			<point x="582" y="488" type="line"/>
			<point x="574" y="670" type="line"/>
			<point x="28" y="670" type="line"/>
			<point x="20" y="488" type="line"/>
			<point x="65" y="488" type="line"/>
			<point x="112" y="670" type="line"/>
			<point x="63" y="628" type="line"/>
		</contour>
	</outline>
</glyph>
<glyph name="V" format="1">
	<unicode hex="0056"/>
	<advance width="675"/>
	<outline>
		<contour>
			<point x="554" y="624" type="line"/>
			<point x="665" y="641" type="line"/>
			<point x="665" y="670" type="line"/>
			<point x="434" y="670" type="line"/>
			<point x="434" y="634" type="line"/>
			<point x="534" y="624" type="line"/>
		</contour>
		<contour>
			<point x="165" y="624" type="line"/>
			<point x="285" y="634" type="line"/>
			<point x="285" y="670" type="line"/>
			<point x="15" y="670" type="line"/>
			<point x="15" y="639" type="line"/>
			<point x="145" y="624" type="line"/>
		</contour>
		<contour>
			<point x="330" y="-7" type="line"/>
			<point x="366" y="-7" type="line"/>
			<point x="592" y="670" type="line"/>
			<point x="541" y="670" type="line"/>
			<point x="343" y="50" type="line"/>
			<point x="374" y="100" type="line"/>
			<point x="172" y="670" type="line"/>
			<point x="76" y="670" type="line"/>
		</contour>
	</outline>
</glyph>
<glyph name="X" format="1">
	<unicode hex="0058"/>
	<advance width="648"/>
	<outline>
		<contour>
			<point x="15" y="0" type="line"/>
			<point x="241" y="0" type="line"/>
			<point x="241" y="31" type="line"/>
			<point x="145" y="49" type="line"/>
			<point x="125" y="49" type="line"/>
			<point x="15" y="31" type="line"/>
		</contour>
		<contour>
			<point x="19" y="639" type="line"/>
			<point x="154" y="624" type="line"/>
			<point x="174" y="624" type="line"/>
			<point x="307" y="639" type="line"/>
			<point x="307" y="670" type="line"/>
			<point x="19" y="670" type="line"/>
		</contour>
		<contour>
			<point x="82" y="0" type="line"/>
			<point x="130" y="0" type="line"/>
			<point x="332" y="332" type="line"/>
			<point x="310" y="354" type="line"/>
		</contour>
		<contour>
			<point x="475" y="0" type="line"/>
			<point x="573" y="0" type="line"/>
			<point x="185" y="670" type="line"/>
			<point x="86" y="670" type="line"/>
		</contour>
		<contour>
			<point x="304" y="342" type="line"/>
			<point x="327" y="322" type="line"/>
			<point x="552" y="670" type="line"/>
			<point x="506" y="670" type="line"/>
		</contour>
		<contour>
			<point x="355" y="0" type="line"/>
			<point x="635" y="0" type="line"/>
			<point x="635" y="31" type="line"/>
			<point x="508" y="46" type="line"/>
			<point x="488" y="46" type="line"/>
			<point x="355" y="31" type="line"/>
		</contour>
		<contour>
			<point x="386" y="639" type="line"/>
			<point x="483" y="621" type="line"/>
			<point x="503" y="621" type="line"/>
			<point x="616" y="639" type="line"/>
			<point x="616" y="670" type="line"/>
			<point x="386" y="670" type="line"/>
		</contour>
	</outline>
</glyph>
<glyph name="Y" format="1">
	<unicode hex="0059"/>
	<advance width="633"/>
	<outline>
		<contour>
			<point x="308" y="46" type="line"/>
			<point x="168" y="31" type="line"/>
			<point x="168" y="0" type="line"/>
			<point x="468" y="0" type="line"/>
			<point x="468" y="31" type="line"/>
			<point x="328" y="46" type="line"/>
		</contour>
		<contour>
			<point x="145" y="624" type="line"/>
			<point x="165" y="624" type="line"/>
			<point x="295" y="639" type="line"/>
			<point x="295" y="670" type="line"/>
			<point x="15" y="670" type="line"/>
			<point x="15" y="639" type="line"/>
		</contour>
		<contour>
			<point x="527" y="624" type="line"/>
			<point x="627" y="639" type="line"/>
			<point x="627" y="670" type="line"/>
			<point x="397" y="670" type="line"/>
			<point x="397" y="639" type="line"/>
			<point x="508" y="624" type="line"/>
		</contour>
		<contour>
			<point x="273" y="235" type="line" smooth="yes"/>
			<point x="273" y="185"/>
			<point x="273" y="87"/>
			<point x="270" y="0" type="curve"/>
			<point x="366" y="0" type="line"/>
			<point x="363" y="89"/>
			<point x="363" y="186"/>
			<point x="363" y="235" type="curve" smooth="yes"/>
			<point x="363" y="300" type="line"/>
			<point x="273" y="300" type="line"/>
		</contour>
		<contour>
			<point x="345" y="225" type="line"/>
			<point x="560" y="670" type="line"/>
			<point x="514" y="670" type="line"/>
			<point x="326" y="270" type="line"/>
			<point x="361" y="268" type="line"/>
			<point x="175" y="670" type="line"/>
			<point x="71" y="670" type="line"/>
			<point x="290" y="225" type="line"/>
		</contour>
	</outline>
</glyph>
<glyph name="e" format="1">
	<unicode hex="0065"/>
	<advance width="509"/>
	<outline>
		<contour>
			<point x="274" y="487" type="curve" smooth="yes"/>
			<point x="150" y="487"/>
			<point x="46" y="386"/>
			<point x="46" y="233" type="curve" smooth="yes"/>
			<point x="46" y="81"/>
			<point x="133" y="-13"/>
			<point x="270" y="-13" type="curve" smooth="yes"/>
			<point x="361" y="-13"/>
			<point x="424" y="35"/>
			<point x="458" y="108" type="curve"/>
			<point x="441" y="117" type="line"/>
			<point x="407" y="71"/>
			<point x="368" y="39"/>
			<point x="300" y="39" type="curve" smooth="yes"/>
			<point x="196" y="39"/>
			<point x="131" y="110"/>
			<point x="131" y="245" type="curve" smooth="yes"/>
			<point x="131" y="394"/>
			<point x="205" y="449"/>
			<point x="269" y="449" type="curve" smooth="yes"/>
			<point x="332" y="449"/>
			<point x="380" y="397"/>
			<point x="380" y="337" type="curve" smooth="yes"/>
			<point x="380" y="303"/>
			<point x="369" y="278"/>
			<point x="321" y="278" type="curve" smooth="yes"/>
			<point x="83" y="278" type="line"/>
			<point x="83" y="244" type="line"/>
			<point x="452" y="244" type="line"/>
			<point x="456" y="257"/>
			<point x="459" y="277"/>
			<point x="459" y="300" type="curve" smooth="yes"/>
			<point x="459" y="418"/>
			<point x="377" y="487"/>
		</contour>
	</outline>
</glyph>
<glyph name="o" format="1">
	<unicode hex="006F"/>
	<advance width="548"/>
	<outline>
		<contour>
			<point x="274" y="-13" type="curve" smooth="yes"/>
			<point x="387" y="-13"/>
			<point x="502" y="70"/>
			<point x="502" y="236" type="curve" smooth="yes"/>
			<point x="502" y="402"/>
			<point x="387" y="487"/>
			<point x="274" y="487" type="curve" smooth="yes"/>
			<point x="159" y="487"/>
			<point x="46" y="402"/>
			<point x="46" y="236" type="curve" smooth="yes"/>
			<point x="46" y="70"/>
			<point x="159" y="-13"/>
		</contour>
		<contour>
			<point x="274" y="25" type="curve" smooth="yes"/>
			<point x="185" y="25"/>
			<point x="136" y="97"/>
			<point x="136" y="236" type="curve" smooth="yes"/>
			<point x="136" y="375"/>
			<point x="185" y="449"/>
			<point x="274" y="449" type="curve" smooth="yes"/>
			<point x="361" y="449"/>
			<point x="412" y="375"/>
			<point x="412" y="236" type="curve" smooth="yes"/>
			<point x="412" y="97"/>
			<point x="361" y="25"/>
		</contour>
	</outline>
</glyph>
<glyph name="r" format="1">
	<unicode hex="0072"/>
	<advance width="420"/>
	<outline>
		<contour>
			<point x="115" y="0" type="curve"/>
			<point x="201" y="0" type="line"/>
			<point x="199" y="45"/>
			<point x="198" y="148"/>
			<point x="198" y="210" type="curve" smooth="yes"/>
			<point x="198" y="352" type="line"/>
			<point x="186" y="478" type="line"/>
			<point x="173" y="487" type="line"/>
			<point x="35" y="427" type="line"/>
			<point x="35" y="399" type="line"/>
			<point x="115" y="390" type="line"/>
			<point x="117" y="350"/>
			<point x="118" y="319"/>
			<point x="118" y="264" type="curve" smooth="yes"/>
			<point x="118" y="210" type="line" smooth="yes"/>
			<point x="118" y="148"/>
			<point x="117" y="45"/>
		</contour>
		<contour>
			<point x="43" y="0" type="line"/>
			<point x="283" y="0" type="line"/>
			<point x="283" y="28" type="line"/>
			<point x="173" y="44" type="line"/>
			<point x="153" y="44" type="line"/>
			<point x="43" y="28" type="line"/>
		</contour>
		<contour>
			<point x="158" y="278" type="line"/>
			<point x="196" y="279" type="line"/>
			<point x="220" y="362"/>
			<point x="250" y="406"/>
			<point x="317" y="447" type="curve"/>
			<point x="269" y="426" type="line"/>
			<point x="292" y="408" type="line" smooth="yes"/>
			<point x="310" y="392"/>
			<point x="329" y="380"/>
			<point x="355" y="380" type="curve" smooth="yes"/>
			<point x="399" y="380"/>
			<point x="413" y="409"/>
			<point x="413" y="453" type="curve"/>
			<point x="400" y="476"/>
			<point x="370" y="487"/>
			<point x="342" y="487" type="curve" smooth="yes"/>
			<point x="284" y="487"/>
			<point x="222" y="431"/>
			<point x="190" y="338" type="curve"/>
			<point x="215" y="345" type="line"/>
			<point x="158" y="345" type="line"/>
		</contour>
	</outline>
</glyph>
<glyph name="s" format="1">
	<unicode hex="0073"/>
	<advance width="433"/>
	<outline>
		<contour>
			<point x="203" y="-13" type="curve" smooth="yes"/>
			<point x="329" y="-13"/>
			<point x="394" y="55"/>
			<point x="394" y="129" type="curve" smooth="yes"/>
			<point x="394" y="191"/>
			<point x="354" y="238"/>
			<point x="254" y="275" type="curve" smooth="yes"/>
			<point x="224" y="286" type="line" smooth="yes"/>
			<point x="156" y="311"/>
			<point x="131" y="331"/>
			<point x="131" y="377" type="curve" smooth="yes"/>
			<point x="131" y="421"/>
			<point x="165" y="449"/>
			<point x="229" y="449" type="curve" smooth="yes"/>
			<point x="263" y="449"/>
			<point x="296" y="436"/>
			<point x="327" y="411" type="curve"/>
			<point x="327" y="432" type="line"/>
			<point x="295" y="446" type="line"/>
			<point x="322" y="343" type="line"/>
			<point x="361" y="343" type="line"/>
			<point x="365" y="446" type="line"/>
			<point x="322" y="472"/>
			<point x="280" y="487"/>
			<point x="226" y="487" type="curve" smooth="yes"/>
			<point x="115" y="487"/>
			<point x="54" y="420"/>
			<point x="54" y="347" type="curve" smooth="yes"/>
			<point x="54" y="279"/>
			<point x="104" y="242"/>
			<point x="178" y="214" type="curve" smooth="yes"/>
			<point x="223" y="197" type="line" smooth="yes"/>
			<point x="286" y="174"/>
			<point x="316" y="150"/>
			<point x="316" y="105" type="curve" smooth="yes"/>
			<point x="316" y="56"/>
			<point x="278" y="25"/>
			<point x="199" y="25" type="curve" smooth="yes"/>
			<point x="151" y="25"/>
			<point x="114" y="38"/>
			<point x="80" y="66" type="curve"/>
			<point x="80" y="36" type="line"/>
			<point x="129" y="16" type="line"/>
			<point x="97" y="134" type="line"/>
			<point x="51" y="134" type="line"/>
			<point x="53" y="25" type="line"/>
			<point x="102" y="0"/>
			<point x="145" y="-13"/>
		</contour>
	</outline>
</glyph>
<glyph name="t" format="1">
	<unicode hex="0074"/>
	<advance width="323"/>
	<outline>
		<contour>
			<point x="133" y="474" type="line"/>
			<point x="133" y="435" type="line"/>
			<point x="311" y="435" type="line"/>
			<point x="311" y="474" type="line"/>
		</contour>
		<contour>
			<point x="173" y="101" type="curve" smooth="yes"/>
			<point x="173" y="444" type="line"/>
			<point x="181" y="610" type="line"/>
			<point x="123" y="610" type="line"/>
			<point x="93" y="448" type="line"/>
			<point x="133" y="481" type="line"/>
			<point x="9" y="465" type="line"/>
			<point x="9" y="435" type="line"/>
			<point x="93" y="435" type="line"/>
			<point x="93" y="184" type="line" smooth="yes"/>
			<point x="93" y="145"/>
			<point x="92" y="124"/>
			<point x="92" y="100" type="curve" smooth="yes"/>
			<point x="92" y="23"/>
			<point x="135" y="-13"/>
			<point x="204" y="-13" type="curve" smooth="yes"/>
			<point x="254" y="-13"/>
			<point x="295" y="6"/>
			<point x="320" y="38" type="curve"/>
			<point x="300" y="61" type="line"/>
			<point x="272" y="40"/>
			<point x="253" y="30"/>
			<point x="230" y="30" type="curve" smooth="yes"/>
			<point x="195" y="30"/>
			<point x="173" y="51"/>
		</contour>
	</outline>
</glyph>
<glyph name="y" format="1">
	<unicode hex="0079"/>
	<advance width="511"/>
	<outline>
		<contour>
			<point x="449" y="432" type="line"/>
			<point x="513" y="445" type="line"/>
			<point x="513" y="474" type="line"/>
			<point x="319" y="474" type="line"/>
			<point x="319" y="445" type="line"/>
			<point x="429" y="432" type="line"/>
		</contour>
		<contour>
			<point x="122" y="432" type="line"/>
			<point x="240" y="444" type="line"/>
			<point x="240" y="474" type="line"/>
			<point x="4" y="474" type="line"/>
			<point x="4" y="445" type="line"/>
			<point x="102" y="432" type="line"/>
		</contour>
		<contour>
			<point x="295" y="48" type="line"/>
			<point x="138" y="474" type="line"/>
			<point x="45" y="474" type="line"/>
			<point x="256" y="-57" type="line"/>
		</contour>
		<contour>
			<point x="91" y="-250" type="curve" smooth="yes"/>
			<point x="156" y="-250"/>
			<point x="226" y="-186"/>
			<point x="297" y="3" type="curve" smooth="yes"/>
			<point x="475" y="474" type="line"/>
			<point x="428" y="474" type="line"/>
			<point x="276" y="40" type="line"/>
			<point x="246" y="-33" type="line" smooth="yes"/>
			<point x="216" y="-112"/>
			<point x="182" y="-178"/>
			<point x="111" y="-215" type="curve"/>
			<point x="130" y="-237" type="line"/>
			<point x="171" y="-210" type="line"/>
			<point x="141" y="-182" type="line" smooth="yes"/>
			<point x="116" y="-158"/>
			<point x="98" y="-142"/>
			<point x="67" y="-142" type="curve" smooth="yes"/>
			<point x="38" y="-142"/>
			<point x="7" y="-155"/>
			<point x="0" y="-183" type="curve"/>
			<point x="-1" y="-223"/>
			<point x="42" y="-250"/>
		</contour>
	</outline>
</glyph>
<glyph name="asciitilde" format="1">
	<unicode hex="007E"/>
	<advance width="530"/>
	<outline>
		<contour>
			<point x="280" y="359" type="curve" smooth="yes"/>
			<point x="241" y="394"/>
			<point x="211" y="414"/>
			<point x="166" y="414" type="curve" smooth="yes"/>
			<point x="95" y="414"/>
			<point x="56" y="366"/>
			<point x="50" y="282" type="curve"/>
			<point x="88" y="275" type="line"/>
			<point x="97" y="350"/>
			<point x="126" y="374"/>
			<point x="160" y="374" type="curve" smooth="yes"/>
			<point x="191" y="374"/>
			<point x="219" y="361"/>
			<point x="251" y="331" type="curve" smooth="yes"/>
			<point x="290" y="296"/>
			<point x="320" y="276"/>
			<point x="366" y="276" type="curve" smooth="yes"/>
			<point x="438" y="276"/>
			<point x="475" y="324"/>
			<point x="481" y="408" type="curve"/>
			<point x="443" y="415" type="line"/>
			<point x="434" y="339"/>
			<point x="405" y="316"/>
			<point x="373" y="316" type="curve" smooth="yes"/>
			<point x="341" y="316"/>
			<point x="309" y="332"/>
		</contour>
	</outline>
</glyph>
<glyph name="sterling" format="1">
	<unicode hex="00A3"/>
	<advance width="497"/>
	<outline>
		<contour>
			<point x="40" y="287" type="line"/>
			<point x="362" y="287" type="line"/>
			<point x="362" y="333" type="line"/>
			<point x="40" y="333" type="line"/>
		</contour>
		<contour>
			<point x="34" y="0" type="line"/>
			<point x="464" y="0" type="line"/>
			<point x="464" y="80" type="line"/>
			<point x="81" y="80" type="line"/>
			<point x="81" y="56" type="line"/>
			<point x="157" y="96"/>
			<point x="201" y="157"/>
			<point x="201" y="258" type="curve" smooth="yes"/>
			<point x="201" y="346"/>
			<point x="180" y="393"/>
			<point x="180" y="479" type="curve" smooth="yes"/>
			<point x="180" y="580"/>
			<point x="228" y="622"/>
			<point x="290" y="622" type="curve" smooth="yes"/>
			<point x="313" y="622"/>
			<point x="346" y="617"/>
			<point x="385" y="600" type="curve"/>
			<point x="328" y="635" type="line"/>
			<point x="346" y="549" type="line" smooth="yes"/>
			<point x="357" y="499"/>
			<point x="377" y="483"/>
			<point x="404" y="483" type="curve" smooth="yes"/>
			<point x="425" y="483"/>
			<point x="441" y="493"/>
			<point x="449" y="514" type="curve"/>
			<point x="444" y="600"/>
			<point x="366" y="660"/>
			<point x="275" y="660" type="curve" smooth="yes"/>
			<point x="166" y="660"/>
			<point x="90" y="580"/>
			<point x="90" y="475" type="curve" smooth="yes"/>
			<point x="90" y="379"/>
			<point x="147" y="342"/>
			<point x="147" y="250" type="curve" smooth="yes"/>
			<point x="147" y="166"/>
			<point x="109" y="91"/>
			<point x="34" y="52" type="curve"/>
		</contour>
	</outline>
</glyph>
<glyph name="currency" format="1">
	<unicode hex="00A4"/>
	<advance width="500"/>
	<outline>
		<contour>
			<point x="364" y="431" type="line"/>
			<point x="413" y="458" type="line" smooth="yes"/>
			<point x="457" y="483"/>
			<point x="471" y="495"/>
			<point x="471" y="514" type="curve" smooth="yes"/>
			<point x="471" y="534"/>
			<point x="455" y="550"/>
			<point x="435" y="550" type="curve" smooth="yes"/>
			<point x="416" y="550"/>
			<point x="404" y="536"/>
			<point x="379" y="492" type="curve" smooth="yes"/>
			<point x="352" y="443" type="line"/>
		</contour>
		<contour>
			<point x="133" y="329" type="curve" smooth="yes"/>
			<point x="133" y="400"/>
			<point x="186" y="449"/>
			<point x="250" y="449" type="curve" smooth="yes"/>
			<point x="314" y="449"/>
			<point x="366" y="400"/>
			<point x="366" y="329" type="curve" smooth="yes"/>
			<point x="366" y="258"/>
			<point x="314" y="209"/>
			<point x="250" y="209" type="curve" smooth="yes"/>
			<point x="186" y="209"/>
			<point x="133" y="258"/>
		</contour>
		<contour>
			<point x="88" y="329" type="curve" smooth="yes"/>
			<point x="88" y="234"/>
			<point x="163" y="170"/>
			<point x="250" y="170" type="curve" smooth="yes"/>
			<point x="336" y="170"/>
			<point x="411" y="234"/>
			<point x="411" y="329" type="curve" smooth="yes"/>
			<point x="411" y="424"/>
			<point x="336" y="488"/>
			<point x="250" y="488" type="curve" smooth="yes"/>
			<point x="163" y="488"/>
			<point x="88" y="424"/>
		</contour>
		<contour>
			<point x="148" y="443" type="line"/>
			<point x="121" y="492" type="line" smooth="yes"/>
			<point x="96" y="536"/>
			<point x="84" y="550"/>
			<point x="65" y="550" type="curve" smooth="yes"/>
			<point x="45" y="550"/>
			<point x="29" y="534"/>
			<point x="29" y="514" type="curve" smooth="yes"/>
			<point x="29" y="495"/>
			<point x="43" y="483"/>
			<point x="87" y="458" type="curve" smooth="yes"/>
			<point x="136" y="431" type="line"/>
		</contour>
		<contour>
			<point x="136" y="227" type="line"/>
			<point x="87" y="200" type="line" smooth="yes"/>
			<point x="43" y="175"/>
			<point x="29" y="163"/>
			<point x="29" y="144" type="curve" smooth="yes"/>
			<point x="29" y="124"/>
			<point x="45" y="108"/>
			<point x="65" y="108" type="curve" smooth="yes"/>
			<point x="84" y="108"/>
			<point x="96" y="122"/>
			<point x="121" y="166" type="curve" smooth="yes"/>
			<point x="148" y="215" type="line"/>
		</contour>
		<contour>
			<point x="352" y="215" type="line"/>
			<point x="379" y="166" type="line" smooth="yes"/>
			<point x="404" y="122"/>
			<point x="416" y="108"/>
			<point x="435" y="108" type="curve" smooth="yes"/>
			<point x="455" y="108"/>
			<point x="471" y="124"/>
			<point x="471" y="144" type="curve" smooth="yes"/>
			<point x="471" y="163"/>
			<point x="457" y="175"/>
			<point x="413" y="200" type="curve" smooth="yes"/>
			<point x="364" y="227" type="line"/>
		</contour>
	</outline>
</glyph>
<glyph name="yen" format="1">
	<unicode hex="00A5"/>
	<advance width="497"/>
	<outline>
		<contour>
			<point x="50" y="165" type="line"/>
			<point x="455" y="165" type="line"/>
			<point x="455" y="211" type="line"/>
			<point x="50" y="211" type="line"/>
		</contour>
		<contour>
			<point x="50" y="272" type="line"/>
			<point x="455" y="272" type="line"/>
			<point x="455" y="318" type="line"/>
			<point x="50" y="318" type="line"/>
		</contour>
		<contour>
			<point x="240" y="41" type="line"/>
			<point x="105" y="29" type="line"/>
			<point x="105" y="0" type="line"/>
			<point x="394" y="0" type="line"/>
			<point x="394" y="29" type="line"/>
			<point x="259" y="41" type="line"/>
		</contour>
		<contour>
			<point x="104" y="606" type="line"/>
			<point x="113" y="606" type="line"/>
			<point x="229" y="619" type="line"/>
			<point x="229" y="647" type="line"/>
			<point x="-11" y="647" type="line"/>
			<point x="-11" y="619" type="line"/>
		</contour>
		<contour>
			<point x="417" y="606" type="line"/>
			<point x="421" y="606" type="line"/>
			<point x="509" y="619" type="line"/>
			<point x="509" y="647" type="line"/>
			<point x="317" y="647" type="line"/>
			<point x="317" y="619" type="line"/>
		</contour>
		<contour>
			<point x="209" y="192" type="line" smooth="yes"/>
			<point x="209" y="127"/>
			<point x="207" y="69"/>
			<point x="206" y="0" type="curve"/>
			<point x="292" y="0" type="line"/>
			<point x="290" y="71"/>
			<point x="289" y="128"/>
			<point x="289" y="192" type="curve" smooth="yes"/>
			<point x="289" y="311" type="line"/>
			<point x="209" y="311" type="line"/>
		</contour>
		<contour>
			<point x="272" y="239" type="line"/>
			<point x="450" y="647" type="line"/>
			<point x="412" y="647" type="line"/>
			<point x="272" y="322" type="line"/>
			<point x="276" y="322" type="line"/>
			<point x="139" y="647" type="line"/>
			<point x="39" y="647" type="line"/>
			<point x="227" y="239" type="line"/>
		</contour>
	</outline>
</glyph>
<glyph name="dieresis" format="1">
	<unicode hex="00A8"/>
	<advance width="400"/>
	<outline>
		<contour>
			<point x="304" y="597" type="curve" smooth="yes"/>
			<point x="336" y="597"/>
			<point x="362" y="621"/>
			<point x="362" y="653" type="curve" smooth="yes"/>
			<point x="362" y="685"/>
			<point x="336" y="709"/>
			<point x="304" y="709" type="curve" smooth="yes"/>
			<point x="272" y="709"/>
			<point x="245" y="685"/>
			<point x="245" y="653" type="curve" smooth="yes"/>
			<point x="245" y="621"/>
			<point x="272" y="597"/>
		</contour>
		<contour>
			<point x="96" y="597" type="curve" smooth="yes"/>
			<point x="128" y="597"/>
			<point x="155" y="621"/>
			<point x="155" y="653" type="curve" smooth="yes"/>
			<point x="155" y="685"/>
			<point x="128" y="709"/>
			<point x="96" y="709" type="curve" smooth="yes"/>
			<point x="64" y="709"/>
			<point x="38" y="685"/>
			<point x="38" y="653" type="curve" smooth="yes"/>
			<point x="38" y="621"/>
			<point x="64" y="597"/>
		</contour>
	</outline>
</glyph>
<glyph name="copyright" format="1">
	<unicode hex="00A9"/>
	<advance width="756"/>
	<outline>
		<contour>
			<point x="74" y="337" type="curve" smooth="yes"/>
			<point x="74" y="534"/>
			<point x="206" y="651"/>
			<point x="378" y="651" type="curve" smooth="yes"/>
			<point x="550" y="651"/>
			<point x="682" y="533"/>
			<point x="682" y="337" type="curve" smooth="yes"/>
			<point x="682" y="141"/>
			<point x="550" y="19"/>
			<point x="378" y="19" type="curve" smooth="yes"/>
			<point x="206" y="19"/>
			<point x="74" y="140"/>
		</contour>
		<contour>
			<point x="30" y="337" type="curve" smooth="yes"/>
			<point x="30" y="119"/>
			<point x="184" y="-15"/>
			<point x="378" y="-15" type="curve" smooth="yes"/>
			<point x="572" y="-15"/>
			<point x="726" y="119"/>
			<point x="726" y="337" type="curve" smooth="yes"/>
			<point x="726" y="555"/>
			<point x="572" y="685"/>
			<point x="378" y="685" type="curve" smooth="yes"/>
			<point x="184" y="685"/>
			<point x="30" y="555"/>
		</contour>
		<contour>
			<point x="403" y="169" type="curve" smooth="yes"/>
			<point x="322" y="169"/>
			<point x="269" y="228"/>
			<point x="269" y="338" type="curve" smooth="yes"/>
			<point x="269" y="449"/>
			<point x="328" y="508"/>
			<point x="403" y="508" type="curve" smooth="yes"/>
			<point x="429" y="508"/>
			<point x="463" y="501"/>
			<point x="495" y="476" type="curve"/>
			<point x="449" y="521" type="line"/>
			<point x="470" y="412" type="line"/>
			<point x="509" y="412" type="line"/>
			<point x="507" y="513" type="line"/>
			<point x="468" y="535"/>
			<point x="436" y="541"/>
			<point x="393" y="541" type="curve" smooth="yes"/>
			<point x="282" y="541"/>
			<point x="199" y="454"/>
			<point x="199" y="338" type="curve" smooth="yes"/>
			<point x="199" y="219"/>
			<point x="278" y="135"/>
			<point x="394" y="135" type="curve" smooth="yes"/>
			<point x="436" y="135"/>
			<point x="476" y="143"/>
			<point x="512" y="162" type="curve"/>
			<point x="515" y="263" type="line"/>
			<point x="475" y="263" type="line"/>
			<point x="454" y="155" type="line"/>
			<point x="500" y="199" type="line"/>
			<point x="469" y="173"/>
			<point x="425" y="169"/>
		</contour>
	</outline>
</glyph>
<glyph name="logicalnot" format="1">
	<unicode hex="00AC"/>
	<advance width="530"/>
	<outline>
		<contour>
			<point x="24" y="351" type="line"/>
			<point x="453" y="351" type="line"/>
			<point x="443" y="364" type="line"/>
			<point x="443" y="164" type="line"/>
			<point x="489" y="164" type="line"/>
			<point x="489" y="393" type="line"/>
			<point x="24" y="393" type="line"/>
		</contour>
	</outline>
</glyph>
<glyph name="degree" format="1">
	<unicode hex="00B0"/>
	<advance width="328"/>
	<outline>
		<contour>
			<point x="164" y="460" type="curve" smooth="yes"/>
			<point x="114" y="460"/>
			<point x="75" y="501"/>
			<point x="75" y="556" type="curve" smooth="yes"/>
			<point x="75" y="611"/>
			<point x="114" y="654"/>
			<point x="164" y="654" type="curve" smooth="yes"/>
			<point x="214" y="654"/>
			<point x="253" y="611"/>
			<point x="253" y="556" type="curve" smooth="yes"/>
			<point x="253" y="501"/>
			<point x="214" y="460"/>
		</contour>
		<contour>
			<point x="164" y="429" type="curve" smooth="yes"/>
			<point x="233" y="429"/>
			<point x="291" y="478"/>
			<point x="291" y="556" type="curve" smooth="yes"/>
			<point x="291" y="634"/>
			<point x="233" y="685"/>
			<point x="164" y="685" type="curve" smooth="yes"/>
			<point x="95" y="685"/>
			<point x="37" y="634"/>
			<point x="37" y="556" type="curve" smooth="yes"/>
			<point x="37" y="478"/>
			<point x="95" y="429"/>
		</contour>
	</outline>
</glyph>
<glyph name="three.sups" format="1">
	<unicode hex="00B3"/>
	<advance width="370"/>
	<outline>
		<contour>
			<point x="130" y="654" type="line"/>
			<point x="130" y="617" type="line"/>
			<point x="162" y="617" type="line" smooth="yes"/>
			<point x="227" y="617"/>
			<point x="256" y="585"/>
			<point x="256" y="534" type="curve" smooth="yes"/>
			<point x="256" y="481"/>
			<point x="222" y="447"/>
			<point x="163" y="447" type="curve" smooth="yes"/>
			<point x="145" y="447"/>
			<point x="128" y="450"/>
			<point x="107" y="458" type="curve"/>
			<point x="132" y="434" type="line"/>
			<point x="120" y="488" type="line" smooth="yes"/>
			<point x="113" y="521"/>
			<point x="99" y="531"/>
			<point x="81" y="531" type="curve" smooth="yes"/>
			<point x="68" y="531"/>
			<point x="54" y="526"/>
			<point x="48" y="508" type="curve"/>
			<point x="58" y="449"/>
			<point x="104" y="418"/>
			<point x="180" y="418" type="curve" smooth="yes"/>
			<point x="253" y="418"/>
			<point x="325" y="451"/>
			<point x="325" y="533" type="curve" smooth="yes"/>
			<point x="325" y="600"/>
			<point x="276" y="640"/>
			<point x="182" y="639" type="curve"/>
			<point x="189" y="631" type="line"/>
			<point x="258" y="631"/>
			<point x="307" y="674"/>
			<point x="307" y="736" type="curve" smooth="yes"/>
			<point x="307" y="795"/>
			<point x="258" y="832"/>
			<point x="187" y="832" type="curve" smooth="yes"/>
			<point x="122" y="832"/>
			<point x="70" y="804"/>
			<point x="60" y="746" type="curve"/>
			<point x="67" y="730"/>
			<point x="80" y="723"/>
			<point x="94" y="723" type="curve" smooth="yes"/>
			<point x="113" y="723"/>
			<point x="128" y="736"/>
			<point x="133" y="764" type="curve" smooth="yes"/>
			<point x="143" y="813" type="line"/>
			<point x="115" y="793" type="line"/>
			<point x="137" y="800"/>
			<point x="153" y="802"/>
			<point x="166" y="802" type="curve" smooth="yes"/>
			<point x="211" y="802"/>
			<point x="239" y="776"/>
			<point x="239" y="728" type="curve" smooth="yes"/>
			<point x="239" y="681"/>
			<point x="212" y="654"/>
			<point x="157" y="654" type="curve" smooth="yes"/>
		</contour>
	</outline>
</glyph>
<glyph name="one.sups" format="1">
	<unicode hex="00B9"/>
	<advance width="370"/>
	<outline>
		<contour>
			<point x="80" y="799" type="line"/>
			<point x="80" y="770" type="line"/>
			<point x="154" y="774" type="line"/>
			<point x="154" y="426" type="line"/>
			<point x="223" y="426" type="line"/>
			<point x="223" y="823" type="line"/>
			<point x="214" y="828" type="line"/>
		</contour>
		<contour>
			<point x="216" y="466" type="line"/>
			<point x="158" y="466" type="line"/>
			<point x="63" y="451" type="line"/>
			<point x="63" y="426" type="line"/>
			<point x="311" y="426" type="line"/>
			<point x="311" y="451" type="line"/>
		</contour>
	</outline>
</glyph>
<glyph name="onequarter" format="1">
	<unicode hex="00BC"/>
	<advance width="860"/>
	<outline>
		<contour>
			<point x="481" y="105" type="line"/>
			<point x="777" y="105" type="line"/>
			<point x="777" y="154" type="line"/>
			<point x="509" y="154" type="line"/>
			<point x="514" y="143" type="line"/>
			<point x="659" y="359" type="line"/>
			<point x="650" y="359" type="line"/>
			<point x="650" y="0" type="line"/>
			<point x="712" y="0" type="line"/>
			<point x="712" y="404" type="line"/>
			<point x="667" y="404" type="line"/>
			<point x="481" y="144" type="line"/>
		</contour>
		<component base="fraction" xOffset="385"/>
		<component base="one.sups" xOffset="1" yOffset="-172"/>
	</outline>
</glyph>
<glyph name="threequarters" format="1">
	<unicode hex="00BE"/>
	<advance width="860"/>
	<outline>
		<contour>
			<point x="490" y="105" type="line"/>
			<point x="786" y="105" type="line"/>
			<point x="786" y="154" type="line"/>
			<point x="518" y="154" type="line"/>
			<point x="523" y="143" type="line"/>
			<point x="668" y="359" type="line"/>
			<point x="659" y="359" type="line"/>
			<point x="659" y="0" type="line"/>
			<point x="721" y="0" type="line"/>
			<point x="721" y="404" type="line"/>
			<point x="676" y="404" type="line"/>
			<point x="490" y="144" type="line"/>
		</contour>
		<component base="fraction" xOffset="394"/>
		<component base="three.sups" xOffset="33" yOffset="-172"/>
	</outline>
</glyph>
<glyph name="Aacute" format="1">
	<unicode hex="00C1"/>
	<advance width="663"/>
	<outline>
		<contour>
			<point x="258" y="742" type="curve"/>
			<point x="271" y="725" type="line"/>
			<point x="312" y="744"/>
			<point x="355" y="767"/>
			<point x="396" y="789" type="curve" smooth="yes"/>
			<point x="433" y="809"/>
			<point x="447" y="826"/>
			<point x="447" y="844" type="curve" smooth="yes"/>
			<point x="447" y="864"/>
			<point x="430" y="877"/>
			<point x="410" y="877" type="curve" smooth="yes"/>
			<point x="393" y="877"/>
			<point x="375" y="866"/>
			<point x="348" y="838" type="curve" smooth="yes"/>
			<point x="318" y="807"/>
			<point x="288" y="775"/>
		</contour>
		<component base="A"/>
	</outline>
</glyph>
<glyph name="Adieresis" format="1">
	<unicode hex="00C4"/>
	<advance width="663"/>
	<outline>
		<contour>
			<point x="220" y="746" type="curve" smooth="yes"/>
			<point x="251" y="746"/>
			<point x="276" y="769"/>
			<point x="276" y="800" type="curve" smooth="yes"/>
			<point x="276" y="831"/>
			<point x="251" y="854"/>
			<point x="220" y="854" type="curve" smooth="yes"/>
			<point x="189" y="854"/>
			<point x="163" y="831"/>
			<point x="163" y="800" type="curve" smooth="yes"/>
			<point x="163" y="769"/>
			<point x="189" y="746"/>
		</contour>
		<contour>
			<point x="441" y="746" type="curve" smooth="yes"/>
			<point x="472" y="746"/>
			<point x="498" y="769"/>
			<point x="498" y="800" type="curve" smooth="yes"/>
			<point x="498" y="831"/>
			<point x="472" y="854"/>
			<point x="441" y="854" type="curve" smooth="yes"/>
			<point x="410" y="854"/>
			<point x="385" y="831"/>
			<point x="385" y="800" type="curve" smooth="yes"/>
			<point x="385" y="769"/>
			<point x="410" y="746"/>
		</contour>
		<component base="A"/>
	</outline>
</glyph>
<glyph name="Aring" format="1">
	<unicode hex="00C5"/>
	<advance width="663"/>
	<outline>
		<contour>
			<point x="331" y="723" type="curve" smooth="yes"/>
			<point x="379" y="723"/>
			<point x="427" y="758"/>
			<point x="427" y="815" type="curve" smooth="yes"/>
			<point x="427" y="875"/>
			<point x="379" y="908"/>
			<point x="331" y="908" type="curve" smooth="yes"/>
			<point x="283" y="908"/>
			<point x="235" y="873"/>
			<point x="235" y="815" type="curve" smooth="yes"/>
			<point x="235" y="756"/>
			<point x="283" y="723"/>
		</contour>
		<contour>
			<point x="331" y="753" type="curve" smooth="yes"/>
			<point x="294" y="753"/>
			<point x="275" y="784"/>
			<point x="275" y="815" type="curve" smooth="yes"/>
			<point x="275" y="847"/>
			<point x="295" y="876"/>
			<point x="331" y="876" type="curve" smooth="yes"/>
			<point x="368" y="876"/>
			<point x="387" y="847"/>
			<point x="387" y="815" type="curve" smooth="yes"/>
			<point x="387" y="784"/>
			<point x="367" y="753"/>
		</contour>
		<component base="A"/>
	</outline>
</glyph>
<glyph name="AE" format="1">
	<unicode hex="00C6"/>
	<advance width="922"/>
	<outline>
		<contour>
			<point x="5" y="0" type="line"/>
			<point x="235" y="0" type="line"/>
			<point x="235" y="31" type="line"/>
			<point x="131" y="46" type="line"/>
			<point x="111" y="46" type="line"/>
			<point x="5" y="31" type="line"/>
		</contour>
		<contour>
			<point x="72" y="0" type="line"/>
			<point x="118" y="0" type="line"/>
			<point x="479" y="670" type="line"/>
			<point x="439" y="670" type="line"/>
		</contour>
		<contour>
			<point x="233" y="253" type="line"/>
			<point x="503" y="253" type="line"/>
			<point x="503" y="289" type="line"/>
			<point x="252" y="289" type="line"/>
		</contour>
		<contour>
			<point x="341" y="639" type="line"/>
			<point x="447" y="624" type="line"/>
			<point x="503" y="624" type="line"/>
			<point x="503" y="670" type="line"/>
			<point x="341" y="670" type="line"/>
		</contour>
		<contour>
			<point x="370" y="0" type="line"/>
			<point x="503" y="0" type="line"/>
			<point x="503" y="46" type="line"/>
			<point x="493" y="46" type="line"/>
			<point x="370" y="31" type="line"/>
		</contour>
		<contour>
			<point x="455" y="0" type="curve"/>
			<point x="551" y="0" type="line"/>
			<point x="548" y="103"/>
			<point x="548" y="207"/>
			<point x="548" y="322" type="curve" smooth="yes"/>
			<point x="548" y="360" type="line" smooth="yes"/>
			<point x="548" y="465"/>
			<point x="548" y="569"/>
			<point x="551" y="670" type="curve"/>
			<point x="458" y="670" type="line"/>
			<point x="458" y="253" type="line" smooth="yes"/>
			<point x="458" y="161"/>
			<point x="457" y="79"/>
		</contour>
		<contour>
			<point x="503" y="0" type="line"/>
			<point x="880" y="0" type="line"/>
			<point x="883" y="185" type="line"/>
			<point x="838" y="185" type="line"/>
			<point x="796" y="0" type="line"/>
			<point x="845" y="43" type="line"/>
			<point x="503" y="43" type="line"/>
		</contour>
		<contour>
			<point x="503" y="628" type="line"/>
			<point x="825" y="628" type="line"/>
			<point x="776" y="670" type="line"/>
			<point x="818" y="488" type="line"/>
			<point x="863" y="488" type="line"/>
			<point x="860" y="670" type="line"/>
			<point x="503" y="670" type="line"/>
		</contour>
		<contour>
			<point x="503" y="323" type="line"/>
			<point x="730" y="323" type="line"/>
			<point x="730" y="358" type="line"/>
			<point x="503" y="358" type="line"/>
		</contour>
		<contour>
			<point x="713" y="221" type="line"/>
			<point x="755" y="221" type="line"/>
			<point x="755" y="463" type="line"/>
			<point x="713" y="463" type="line"/>
			<point x="698" y="354" type="line"/>
			<point x="698" y="334" type="line"/>
		</contour>
	</outline>
</glyph>
<glyph name="Ccedilla" format="1">
	<unicode hex="00C7"/>
	<advance width="632"/>
	<outline>
		<contour>
			<point x="343" y="-86" type="line"/>
			<point x="393" y="-94"/>
			<point x="416" y="-108"/>
			<point x="416" y="-139" type="curve" smooth="yes"/>
			<point x="416" y="-171"/>
			<point x="396" y="-190"/>
			<point x="358" y="-190" type="curve" smooth="yes"/>
			<point x="339" y="-190"/>
			<point x="326" y="-190"/>
			<point x="310" y="-188" type="curve"/>
			<point x="304" y="-211" type="line"/>
			<point x="317" y="-215"/>
			<point x="338" y="-220"/>
			<point x="366" y="-220" type="curve" smooth="yes"/>
			<point x="436" y="-220"/>
			<point x="473" y="-185"/>
			<point x="473" y="-142" type="curve" smooth="yes"/>
			<point x="473" y="-89"/>
			<point x="418" y="-62"/>
			<point x="359" y="-63" type="curve"/>
			<point x="373" y="-77" type="line"/>
			<point x="383" y="3" type="line"/>
			<point x="356" y="3" type="line"/>
		</contour>
		<component base="C"/>
	</outline>
</glyph>
<glyph name="Egrave" format="1">
	<unicode hex="00C8"/>
	<advance width="604"/>
	<outline>
		<contour>
			<point x="375" y="742" type="line"/>
			<point x="346" y="774"/>
			<point x="316" y="806"/>
			<point x="285" y="838" type="curve" smooth="yes"/>
			<point x="257" y="867"/>
			<point x="240" y="877"/>
			<point x="223" y="877" type="curve" smooth="yes"/>
			<point x="203" y="877"/>
			<point x="186" y="864"/>
			<point x="186" y="844" type="curve" smooth="yes"/>
			<point x="186" y="825"/>
			<point x="201" y="808"/>
			<point x="238" y="789" type="curve" smooth="yes"/>
			<point x="278" y="768"/>
			<point x="320" y="746"/>
			<point x="363" y="726" type="curve"/>
		</contour>
		<component base="E"/>
	</outline>
</glyph>
<glyph name="Eacute" format="1">
	<unicode hex="00C9"/>
	<advance width="604"/>
	<outline>
		<contour>
			<point x="269" y="742" type="curve"/>
			<point x="282" y="725" type="line"/>
			<point x="323" y="744"/>
			<point x="366" y="767"/>
			<point x="407" y="789" type="curve" smooth="yes"/>
			<point x="444" y="809"/>
			<point x="458" y="826"/>
			<point x="458" y="844" type="curve" smooth="yes"/>
			<point x="458" y="864"/>
			<point x="441" y="877"/>
			<point x="421" y="877" type="curve" smooth="yes"/>
			<point x="404" y="877"/>
			<point x="386" y="866"/>
			<point x="359" y="838" type="curve" smooth="yes"/>
			<point x="329" y="807"/>
			<point x="299" y="775"/>
		</contour>
		<component base="E"/>
	</outline>
</glyph>
<glyph name="Ecircumflex" format="1">
	<unicode hex="00CA"/>
	<advance width="604"/>
	<outline>
		<contour>
			<point x="358" y="855" type="line"/>
			<point x="326" y="855" type="line"/>
			<point x="199" y="739" type="line"/>
			<point x="212" y="721" type="line"/>
			<point x="384" y="815" type="line"/>
			<point x="300" y="815" type="line"/>
			<point x="472" y="721" type="line"/>
			<point x="485" y="739" type="line"/>
		</contour>
		<component base="E"/>
	</outline>
</glyph>
<glyph name="Iacute" format="1">
	<unicode hex="00CD"/>
	<advance width="370"/>
	<outline>
		<contour>
			<point x="132" y="742" type="curve"/>
			<point x="145" y="725" type="line"/>
			<point x="186" y="744"/>
			<point x="229" y="767"/>
			<point x="270" y="789" type="curve" smooth="yes"/>
			<point x="307" y="809"/>
			<point x="321" y="826"/>
			<point x="321" y="844" type="curve" smooth="yes"/>
			<point x="321" y="864"/>
			<point x="304" y="877"/>
			<point x="284" y="877" type="curve" smooth="yes"/>
			<point x="267" y="877"/>
			<point x="249" y="866"/>
			<point x="222" y="838" type="curve" smooth="yes"/>
			<point x="192" y="807"/>
			<point x="162" y="775"/>
		</contour>
		<component base="I"/>
	</outline>
</glyph>
<glyph name="Icircumflex" format="1">
	<unicode hex="00CE"/>
	<advance width="370"/>
	<outline>
		<contour>
			<point x="201" y="855" type="line"/>
			<point x="169" y="855" type="line"/>
			<point x="42" y="739" type="line"/>
			<point x="55" y="721" type="line"/>
			<point x="227" y="815" type="line"/>
			<point x="143" y="815" type="line"/>
			<point x="315" y="721" type="line"/>
			<point x="328" y="739" type="line"/>
		</contour>
		<component base="I"/>
	</outline>
</glyph>
<glyph name="Ntilde" format="1">
	<unicode hex="00D1"/>
	<advance width="735"/>
	<outline>
		<contour>
			<point x="198" y="721" type="curve"/>
			<point x="219" y="715" type="line"/>
			<point x="236" y="766"/>
			<point x="257" y="798"/>
			<point x="291" y="798" type="curve" smooth="yes"/>
			<point x="322" y="798"/>
			<point x="345" y="768"/>
			<point x="371" y="746" type="curve" smooth="yes"/>
			<point x="393" y="728"/>
			<point x="413" y="712"/>
			<point x="451" y="712" type="curve" smooth="yes"/>
			<point x="515" y="712"/>
			<point x="542" y="762"/>
			<point x="556" y="842" type="curve"/>
			<point x="534" y="848" type="line"/>
			<point x="518" y="797"/>
			<point x="498" y="766"/>
			<point x="463" y="766" type="curve" smooth="yes"/>
			<point x="432" y="766"/>
			<point x="409" y="795"/>
			<point x="383" y="817" type="curve" smooth="yes"/>
			<point x="360" y="835"/>
			<point x="339" y="851"/>
			<point x="302" y="851" type="curve" smooth="yes"/>
			<point x="240" y="851"/>
			<point x="210" y="799"/>
		</contour>
		<component base="N"/>
	</outline>
</glyph>
<glyph name="Oacute" format="1">
	<unicode hex="00D3"/>
	<advance width="707"/>
	<outline>
		<contour>
			<point x="301" y="742" type="curve"/>
			<point x="314" y="725" type="line"/>
			<point x="355" y="744"/>
			<point x="398" y="767"/>
			<point x="439" y="789" type="curve" smooth="yes"/>
			<point x="476" y="809"/>
			<point x="490" y="826"/>
			<point x="490" y="844" type="curve" smooth="yes"/>
			<point x="490" y="864"/>
			<point x="473" y="877"/>
			<point x="453" y="877" type="curve" smooth="yes"/>
			<point x="436" y="877"/>
			<point x="418" y="866"/>
			<point x="391" y="838" type="curve" smooth="yes"/>
			<point x="361" y="807"/>
			<point x="331" y="775"/>
		</contour>
		<component base="O"/>
	</outline>
</glyph>
<glyph name="Otilde" format="1">
	<unicode hex="00D5"/>
	<advance width="707"/>
	<outline>
		<contour>
			<point x="175" y="731" type="curve"/>
			<point x="196" y="725" type="line"/>
			<point x="213" y="776"/>
			<point x="234" y="808"/>
			<point x="268" y="808" type="curve" smooth="yes"/>
			<point x="299" y="808"/>
			<point x="322" y="778"/>
			<point x="348" y="756" type="curve" smooth="yes"/>
			<point x="370" y="738"/>
			<point x="390" y="722"/>
			<point x="428" y="722" type="curve" smooth="yes"/>
			<point x="492" y="722"/>
			<point x="519" y="772"/>
			<point x="533" y="852" type="curve"/>
			<point x="511" y="858" type="line"/>
			<point x="495" y="807"/>
			<point x="475" y="776"/>
			<point x="440" y="776" type="curve" smooth="yes"/>
			<point x="409" y="776"/>
			<point x="386" y="805"/>
			<point x="360" y="827" type="curve" smooth="yes"/>
			<point x="337" y="845"/>
			<point x="316" y="861"/>
			<point x="279" y="861" type="curve" smooth="yes"/>
			<point x="217" y="861"/>
			<point x="187" y="809"/>
		</contour>
		<component base="O"/>
	</outline>
</glyph>
<glyph name="Oslash" format="1">
	<unicode hex="00D8"/>
	<advance width="707"/>
	<outline>
		<contour>
			<point x="645" y="664" type="line"/>
			<point x="611" y="690" type="line"/>
			<point x="53" y="6" type="line"/>
			<point x="87" y="-20" type="line"/>
		</contour>
		<component base="O"/>
	</outline>
</glyph>
<glyph name="Ugrave" format="1">
	<unicode hex="00D9"/>
	<advance width="727"/>
	<outline>
		<contour>
			<point x="436" y="732" type="line"/>
			<point x="407" y="764"/>
			<point x="377" y="796"/>
			<point x="346" y="828" type="curve" smooth="yes"/>
			<point x="318" y="857"/>
			<point x="301" y="867"/>
			<point x="284" y="867" type="curve" smooth="yes"/>
			<point x="264" y="867"/>
			<point x="247" y="854"/>
			<point x="247" y="834" type="curve" smooth="yes"/>
			<point x="247" y="815"/>
			<point x="262" y="798"/>
			<point x="299" y="779" type="curve" smooth="yes"/>
			<point x="339" y="758"/>
			<point x="381" y="736"/>
			<point x="424" y="716" type="curve"/>
		</contour>
		<component base="U"/>
	</outline>
</glyph>
<glyph name="germandbls" format="1">
	<unicode hex="00DF"/>
	<advance width="588"/>
	<outline>
		<contour>
			<point x="148" y="44" type="line"/>
			<point x="138" y="44" type="line"/>
			<point x="25" y="27" type="line"/>
			<point x="25" y="0" type="line"/>
			<point x="148" y="0" type="line"/>
		</contour>
		<contour>
			<point x="108" y="210" type="line" smooth="yes"/>
			<point x="108" y="140"/>
			<point x="107" y="70"/>
			<point x="105" y="0" type="curve"/>
			<point x="191" y="0" type="line"/>
			<point x="189" y="70"/>
			<point x="188" y="140"/>
			<point x="188" y="210" type="curve" smooth="yes"/>
			<point x="188" y="439" type="line" smooth="yes"/>
			<point x="188" y="541"/>
			<point x="188" y="582"/>
			<point x="200" y="622" type="curve" smooth="yes"/>
			<point x="218" y="679"/>
			<point x="254" y="711"/>
			<point x="320" y="711" type="curve" smooth="yes"/>
			<point x="395" y="711"/>
			<point x="425" y="672"/>
			<point x="425" y="605" type="curve" smooth="yes"/>
			<point x="425" y="550"/>
			<point x="403" y="517"/>
			<point x="360" y="480" type="curve" smooth="yes"/>
			<point x="316" y="443"/>
			<point x="296" y="403"/>
			<point x="296" y="354" type="curve" smooth="yes"/>
			<point x="296" y="288"/>
			<point x="336" y="259"/>
			<point x="401" y="219" type="curve" smooth="yes"/>
			<point x="475" y="174"/>
			<point x="489" y="148"/>
			<point x="489" y="112" type="curve" smooth="yes"/>
			<point x="489" y="60"/>
			<point x="463" y="25"/>
			<point x="391" y="25" type="curve" smooth="yes"/>
			<point x="366" y="25"/>
			<point x="340" y="30"/>
			<point x="296" y="54" type="curve"/>
			<point x="336" y="16" type="line"/>
			<point x="298" y="141" type="line"/>
			<point x="258" y="141" type="line"/>
			<point x="259" y="15" type="line"/>
			<point x="305" y="-2"/>
			<point x="349" y="-13"/>
			<point x="399" y="-13" type="curve" smooth="yes"/>
			<point x="514" y="-13"/>
			<point x="566" y="43"/>
			<point x="566" y="132" type="curve" smooth="yes"/>
			<point x="566" y="190"/>
			<point x="540" y="225"/>
			<point x="442" y="288" type="curve" smooth="yes"/>
			<point x="392" y="322"/>
			<point x="366" y="339"/>
			<point x="366" y="386" type="curve" smooth="yes"/>
			<point x="366" y="420"/>
			<point x="384" y="454"/>
			<point x="420" y="483" type="curve" smooth="yes"/>
			<point x="471" y="523"/>
			<point x="503" y="570"/>
			<point x="503" y="621" type="curve" smooth="yes"/>
			<point x="503" y="693"/>
			<point x="437" y="750"/>
			<point x="336" y="750" type="curve" smooth="yes"/>
			<point x="246" y="750"/>
			<point x="172" y="700"/>
			<point x="140" y="625" type="curve" smooth="yes"/>
			<point x="123" y="586"/>
			<point x="108" y="520"/>
			<point x="108" y="417" type="curve" smooth="yes"/>
		</contour>
	</outline>
</glyph>
<glyph name="agrave" format="1">
	<unicode hex="00E0"/>
	<advance width="508"/>
	<outline>
		<contour>
			<point x="320" y="573" type="line"/>
			<point x="292" y="620"/>
			<point x="264" y="668"/>
			<point x="236" y="717" type="curve" smooth="yes"/>
			<point x="219" y="747"/>
			<point x="198" y="757"/>
			<point x="182" y="757" type="curve" smooth="yes"/>
			<point x="163" y="757"/>
			<point x="145" y="745"/>
			<point x="145" y="720" type="curve" smooth="yes"/>
			<point x="145" y="707"/>
			<point x="150" y="691"/>
			<point x="178" y="667" type="curve" smooth="yes"/>
			<point x="220" y="632"/>
			<point x="260" y="597"/>
			<point x="303" y="560" type="curve"/>
		</contour>
		<component base="a"/>
	</outline>
</glyph>
<glyph name="acircumflex" format="1">
	<unicode hex="00E2"/>
	<advance width="508"/>
	<outline>
		<contour>
			<point x="379" y="549" type="line"/>
			<point x="396" y="564" type="line"/>
			<point x="267" y="743" type="line"/>
			<point x="235" y="743" type="line"/>
			<point x="106" y="564" type="line"/>
			<point x="123" y="549" type="line"/>
			<point x="293" y="699" type="line"/>
			<point x="209" y="699" type="line"/>
		</contour>
		<component base="a"/>
	</outline>
</glyph>
<glyph name="atilde" format="1">
	<unicode hex="00E3"/>
	<advance width="508"/>
	<outline>
		<contour>
			<point x="81" y="583" type="curve"/>
			<point x="99" y="578" type="line"/>
			<point x="114" y="629"/>
			<point x="133" y="661"/>
			<point x="164" y="661" type="curve" smooth="yes"/>
			<point x="192" y="661"/>
			<point x="213" y="631"/>
			<point x="237" y="609" type="curve" smooth="yes"/>
			<point x="256" y="591"/>
			<point x="274" y="575"/>
			<point x="308" y="575" type="curve" smooth="yes"/>
			<point x="366" y="575"/>
			<point x="390" y="625"/>
			<point x="403" y="705" type="curve"/>
			<point x="384" y="711" type="line"/>
			<point x="370" y="660"/>
			<point x="351" y="628"/>
			<point x="320" y="628" type="curve" smooth="yes"/>
			<point x="292" y="628"/>
			<point x="271" y="658"/>
			<point x="247" y="680" type="curve" smooth="yes"/>
			<point x="227" y="698"/>
			<point x="208" y="714"/>
			<point x="175" y="714" type="curve" smooth="yes"/>
			<point x="119" y="714"/>
			<point x="92" y="662"/>
		</contour>
		<component base="a"/>
	</outline>
</glyph>
<glyph name="ae" format="1">
	<unicode hex="00E6"/>
	<advance width="782"/>
	<outline>
		<contour>
			<point x="131" y="124" type="curve" smooth="yes"/>
			<point x="131" y="157"/>
			<point x="141" y="194"/>
			<point x="236" y="230" type="curve" smooth="yes"/>
			<point x="264" y="241"/>
			<point x="318" y="261"/>
			<point x="363" y="272" type="curve"/>
			<point x="363" y="299" type="line"/>
			<point x="313" y="290"/>
			<point x="252" y="272"/>
			<point x="210" y="257" type="curve" smooth="yes"/>
			<point x="77" y="208"/>
			<point x="46" y="170"/>
			<point x="46" y="113" type="curve" smooth="yes"/>
			<point x="46" y="31"/>
			<point x="107" y="-13"/>
			<point x="177" y="-13" type="curve" smooth="yes"/>
			<point x="241" y="-13"/>
			<point x="282" y="10"/>
			<point x="374" y="96" type="curve"/>
			<point x="361" y="118" type="line"/>
			<point x="284" y="60"/>
			<point x="257" y="46"/>
			<point x="215" y="46" type="curve" smooth="yes"/>
			<point x="170" y="46"/>
			<point x="131" y="74"/>
		</contour>
		<contour>
			<point x="540" y="-13" type="curve" smooth="yes"/>
			<point x="636" y="-13"/>
			<point x="699" y="36"/>
			<point x="733" y="108" type="curve"/>
			<point x="716" y="117" type="line"/>
			<point x="682" y="71"/>
			<point x="643" y="39"/>
			<point x="575" y="39" type="curve" smooth="yes"/>
			<point x="471" y="39"/>
			<point x="406" y="110"/>
			<point x="406" y="242" type="curve" smooth="yes"/>
			<point x="406" y="395"/>
			<point x="480" y="449"/>
			<point x="543" y="449" type="curve" smooth="yes"/>
			<point x="607" y="449"/>
			<point x="655" y="397"/>
			<point x="655" y="337" type="curve" smooth="yes"/>
			<point x="655" y="302"/>
			<point x="643" y="278"/>
			<point x="596" y="278" type="curve" smooth="yes"/>
			<point x="363" y="278" type="line"/>
			<point x="363" y="244" type="line"/>
			<point x="727" y="244" type="line"/>
			<point x="731" y="257"/>
			<point x="734" y="277"/>
			<point x="734" y="299" type="curve" smooth="yes"/>
			<point x="734" y="418"/>
			<point x="652" y="487"/>
			<point x="548" y="487" type="curve" smooth="yes"/>
			<point x="472" y="487"/>
			<point x="409" y="444"/>
			<point x="369" y="384" type="curve"/>
			<point x="358" y="376" type="line"/>
			<point x="335" y="336"/>
			<point x="321" y="288"/>
			<point x="321" y="234" type="curve" smooth="yes"/>
			<point x="321" y="74"/>
			<point x="411" y="-13"/>
		</contour>
		<contour>
			<point x="399" y="333" type="line" smooth="yes"/>
			<point x="399" y="443"/>
			<point x="342" y="487"/>
			<point x="252" y="487" type="curve" smooth="yes"/>
			<point x="152" y="487"/>
			<point x="78" y="439"/>
			<point x="59" y="363" type="curve"/>
			<point x="61" y="338"/>
			<point x="77" y="321"/>
			<point x="104" y="321" type="curve" smooth="yes"/>
			<point x="131" y="321"/>
			<point x="148" y="336"/>
			<point x="157" y="365" type="curve" smooth="yes"/>
			<point x="183" y="453" type="line"/>
			<point x="141" y="431" type="line"/>
			<point x="178" y="446"/>
			<point x="209" y="449"/>
			<point x="234" y="449" type="curve" smooth="yes"/>
			<point x="295" y="449"/>
			<point x="325" y="426"/>
			<point x="325" y="328" type="curve" smooth="yes"/>
			<point x="325" y="241" type="line"/>
			<point x="399" y="241" type="line"/>
		</contour>
	</outline>
</glyph>
<glyph name="eacute" format="1">
	<unicode hex="00E9"/>
	<advance width="509"/>
	<outline>
		<contour>
			<point x="219" y="573" type="curve"/>
			<point x="237" y="560" type="line"/>
			<point x="279" y="597"/>
			<point x="320" y="632"/>
			<point x="363" y="667" type="curve" smooth="yes"/>
			<point x="392" y="691"/>
			<point x="395" y="707"/>
			<point x="395" y="720" type="curve" smooth="yes"/>
			<point x="395" y="745"/>
			<point x="377" y="757"/>
			<point x="358" y="757" type="curve" smooth="yes"/>
			<point x="341" y="757"/>
			<point x="323" y="747"/>
			<point x="305" y="717" type="curve" smooth="yes"/>
			<point x="276" y="669"/>
			<point x="248" y="621"/>
		</contour>
		<component base="e"/>
	</outline>
</glyph>
<glyph name="iacute" format="1">
	<unicode hex="00ED"/>
	<advance width="297"/>
	<outline>
		<contour>
			<point x="101" y="573" type="curve"/>
			<point x="119" y="560" type="line"/>
			<point x="161" y="597"/>
			<point x="202" y="632"/>
			<point x="245" y="667" type="curve" smooth="yes"/>
			<point x="274" y="691"/>
			<point x="277" y="707"/>
			<point x="277" y="720" type="curve" smooth="yes"/>
			<point x="277" y="745"/>
			<point x="259" y="757"/>
			<point x="240" y="757" type="curve" smooth="yes"/>
			<point x="223" y="757"/>
			<point x="205" y="747"/>
			<point x="187" y="717" type="curve" smooth="yes"/>
			<point x="158" y="669"/>
			<point x="130" y="621"/>
		</contour>
		<component base="dotlessi"/>
	</outline>
</glyph>
<glyph name="icircumflex" format="1">
	<unicode hex="00EE"/>
	<advance width="297"/>
	<outline>
		<contour>
			<point x="279" y="549" type="line"/>
			<point x="296" y="564" type="line"/>
			<point x="167" y="743" type="line"/>
			<point x="135" y="743" type="line"/>
			<point x="6" y="564" type="line"/>
			<point x="23" y="549" type="line"/>
			<point x="193" y="699" type="line"/>
			<point x="109" y="699" type="line"/>
		</contour>
		<component base="dotlessi"/>
	</outline>
</glyph>
<glyph name="oslash" format="1">
	<unicode hex="00F8"/>
	<advance width="548"/>
	<outline>
		<contour>
			<point x="485" y="480" type="line"/>
			<point x="458" y="500" type="line"/>
			<point x="55" y="1" type="line"/>
			<point x="81" y="-19" type="line"/>
		</contour>
		<component base="o"/>
	</outline>
</glyph>
<glyph name="uacute" format="1">
	<unicode hex="00FA"/>
	<advance width="582"/>
	<outline>
		<contour>
			<point x="231" y="573" type="curve"/>
			<point x="249" y="560" type="line"/>
			<point x="291" y="597"/>
			<point x="332" y="632"/>
			<point x="375" y="667" type="curve" smooth="yes"/>
			<point x="404" y="691"/>
			<point x="407" y="707"/>
			<point x="407" y="720" type="curve" smooth="yes"/>
			<point x="407" y="745"/>
			<point x="389" y="757"/>
			<point x="370" y="757" type="curve" smooth="yes"/>
			<point x="353" y="757"/>
			<point x="335" y="747"/>
			<point x="317" y="717" type="curve" smooth="yes"/>
			<point x="288" y="669"/>
			<point x="260" y="621"/>
		</contour>
		<component base="u"/>
	</outline>
</glyph>
<glyph name="thorn" format="1">
	<unicode hex="00FE"/>
	<advance width="551"/>
	<outline>
		<contour>
			<point x="420" y="236" type="curve" smooth="yes"/>
			<point x="420" y="96"/>
			<point x="358" y="36"/>
			<point x="283" y="36" type="curve" smooth="yes"/>
			<point x="244" y="36"/>
			<point x="193" y="51"/>
			<point x="148" y="104" type="curve"/>
			<point x="139" y="94" type="line"/>
			<point x="190" y="5"/>
			<point x="251" y="-13"/>
			<point x="299" y="-13" type="curve" smooth="yes"/>
			<point x="417" y="-13"/>
			<point x="505" y="89"/>
			<point x="505" y="243" type="curve" smooth="yes"/>
			<point x="505" y="397"/>
			<point x="421" y="487"/>
			<point x="316" y="487" type="curve" smooth="yes"/>
			<point x="254" y="487"/>
			<point x="191" y="457"/>
			<point x="139" y="384" type="curve"/>
			<point x="148" y="368" type="line"/>
			<point x="225" y="447"/>
			<point x="266" y="440"/>
			<point x="290" y="440" type="curve" smooth="yes"/>
			<point x="368" y="440"/>
			<point x="420" y="371"/>
		</contour>
		<contour>
			<point x="138" y="-197" type="line"/>
			<point x="118" y="-197" type="line"/>
			<point x="5" y="-213" type="line"/>
			<point x="5" y="-240" type="line"/>
			<point x="261" y="-240" type="line"/>
			<point x="261" y="-213" type="line"/>
		</contour>
		<contour>
			<point x="169" y="387" type="line"/>
			<point x="166" y="399" type="line"/>
			<point x="166" y="590" type="line"/>
			<point x="170" y="733" type="line"/>
			<point x="157" y="740" type="line"/>
			<point x="6" y="695" type="line"/>
			<point x="6" y="667" type="line"/>
			<point x="89" y="657" type="line"/>
			<point x="89" y="-30" type="line" smooth="yes"/>
			<point x="89" y="-100"/>
			<point x="88" y="-170"/>
			<point x="86" y="-240" type="curve"/>
			<point x="169" y="-240" type="line"/>
			<point x="167" y="-170"/>
			<point x="166" y="-100"/>
			<point x="166" y="-30" type="curve" smooth="yes"/>
			<point x="166" y="64" type="line"/>
			<point x="169" y="70" type="line"/>
		</contour>
	</outline>
</glyph>
<glyph name="dotlessi" format="1">
	<unicode hex="0131"/>
	<advance width="297"/>
	<outline>
		<contour>
			<point x="110" y="0" type="curve"/>
			<point x="196" y="0" type="line"/>
			<point x="194" y="45"/>
			<point x="193" y="148"/>
			<point x="193" y="210" type="curve" smooth="yes"/>
			<point x="193" y="342" type="line"/>
			<point x="196" y="478" type="line"/>
			<point x="183" y="487" type="line"/>
			<point x="30" y="428" type="line"/>
			<point x="30" y="401" type="line"/>
			<point x="110" y="392" type="line"/>
			<point x="112" y="352"/>
			<point x="113" y="323"/>
			<point x="113" y="268" type="curve" smooth="yes"/>
			<point x="113" y="210" type="line" smooth="yes"/>
			<point x="113" y="148"/>
			<point x="112" y="45"/>
		</contour>
		<contour>
			<point x="35" y="0" type="line"/>
			<point x="265" y="0" type="line"/>
			<point x="265" y="27" type="line"/>
			<point x="165" y="44" type="line"/>
			<point x="145" y="44" type="line"/>
			<point x="35" y="27" type="line"/>
		</contour>
	</outline>
</glyph>
<glyph name="Lslash" format="1">
	<unicode hex="0141"/>
	<advance width="597"/>
	<outline>
		<contour>
			<point x="396" y="454" type="line"/>
			<point x="185" y="333" type="line"/>
			<point x="185" y="289" type="line"/>
			<point x="396" y="410" type="line"/>
		</contour>
		<contour>
			<point x="185" y="338" type="line"/>
			<point x="45" y="258" type="line"/>
			<point x="45" y="215" type="line"/>
			<point x="185" y="294" type="line"/>
		</contour>
		<component base="L"/>
	</outline>
</glyph>
<glyph name="lslash" format="1">
	<unicode hex="0142"/>
	<advance width="296"/>
	<outline>
		<contour>
			<point x="147" y="408" type="line"/>
			<point x="25" y="345" type="line"/>
			<point x="25" y="303" type="line"/>
			<point x="147" y="366" type="line"/>
		</contour>
		<contour>
			<point x="271" y="468" type="line"/>
			<point x="147" y="403" type="line"/>
			<point x="147" y="361" type="line"/>
			<point x="271" y="425" type="line"/>
		</contour>
		<component base="l"/>
	</outline>
</glyph>
<glyph name="Scaron" format="1">
	<unicode hex="0160"/>
	<advance width="510"/>
	<outline>
		<contour>
			<point x="150" y="865" type="line"/>
			<point x="133" y="851" type="line"/>
			<point x="233" y="730" type="line"/>
			<point x="307" y="730" type="line"/>
			<point x="407" y="851" type="line"/>
			<point x="390" y="865" type="line"/>
			<point x="228" y="751" type="line"/>
			<point x="312" y="751" type="line"/>
		</contour>
		<component base="S"/>
	</outline>
</glyph>
<glyph name="florin" format="1">
	<unicode hex="0192"/>
	<advance width="497"/>
	<outline>
		<contour>
			<point x="102" y="347" type="line"/>
			<point x="424" y="347" type="line"/>
			<point x="424" y="393" type="line"/>
			<point x="102" y="393" type="line"/>
		</contour>
		<contour>
			<point x="294" y="349" type="line" smooth="yes"/>
			<point x="304" y="470"/>
			<point x="305" y="537"/>
			<point x="334" y="586" type="curve" smooth="yes"/>
			<point x="346" y="605"/>
			<point x="361" y="623"/>
			<point x="386" y="635" type="curve"/>
			<point x="362" y="637" type="line"/>
			<point x="396" y="595" type="line" smooth="yes"/>
			<point x="420" y="571"/>
			<point x="442" y="563"/>
			<point x="465" y="563" type="curve" smooth="yes"/>
			<point x="498" y="563"/>
			<point x="517" y="581"/>
			<point x="522" y="607" type="curve"/>
			<point x="512" y="637"/>
			<point x="474" y="660"/>
			<point x="420" y="660" type="curve" smooth="yes"/>
			<point x="378" y="660"/>
			<point x="332" y="646"/>
			<point x="293" y="605" type="curve" smooth="yes"/>
			<point x="247" y="555"/>
			<point x="227" y="483"/>
			<point x="216" y="354" type="curve" smooth="yes"/>
			<point x="204" y="217" type="line" smooth="yes"/>
			<point x="193" y="96"/>
			<point x="193" y="23"/>
			<point x="165" y="-24" type="curve" smooth="yes"/>
			<point x="152" y="-45"/>
			<point x="137" y="-62"/>
			<point x="112" y="-74" type="curve"/>
			<point x="136" y="-76" type="line"/>
			<point x="102" y="-35" type="line" smooth="yes"/>
			<point x="79" y="-11"/>
			<point x="56" y="-3"/>
			<point x="32" y="-3" type="curve" smooth="yes"/>
			<point x="-1" y="-3"/>
			<point x="-20" y="-21"/>
			<point x="-25" y="-47" type="curve"/>
			<point x="-15" y="-77"/>
			<point x="24" y="-100"/>
			<point x="78" y="-100" type="curve" smooth="yes"/>
			<point x="120" y="-100"/>
			<point x="166" y="-86"/>
			<point x="204" y="-45" type="curve" smooth="yes"/>
			<point x="254" y="9"/>
			<point x="270" y="86"/>
			<point x="284" y="233" type="curve" smooth="yes"/>
		</contour>
	</outline>
</glyph>
<glyph name="circumflex" format="1">
	<unicode hex="02C6"/>
	<advance width="400"/>
	<outline>
		<contour>
			<point x="328" y="549" type="line"/>
			<point x="345" y="564" type="line"/>
			<point x="216" y="743" type="line"/>
			<point x="184" y="743" type="line"/>
			<point x="55" y="564" type="line"/>
			<point x="72" y="549" type="line"/>
			<point x="242" y="699" type="line"/>
			<point x="158" y="699" type="line"/>
		</contour>
	</outline>
</glyph>
<glyph name="breve" format="1">
	<unicode hex="02D8"/>
	<advance width="400"/>
	<outline>
		<contour>
			<point x="50" y="724" type="line"/>
			<point x="59" y="647"/>
			<point x="109" y="575"/>
			<point x="200" y="575" type="curve" smooth="yes"/>
			<point x="291" y="575"/>
			<point x="341" y="647"/>
			<point x="350" y="724" type="curve"/>
			<point x="332" y="732" type="line"/>
			<point x="312" y="680"/>
			<point x="273" y="640"/>
			<point x="200" y="640" type="curve" smooth="yes"/>
			<point x="127" y="640"/>
			<point x="88" y="680"/>
			<point x="68" y="732" type="curve"/>
		</contour>
	</outline>
</glyph>
<glyph name="ring" format="1">
	<unicode hex="02DA"/>
	<advance width="400"/>
	<outline>
		<contour>
			<point x="200" y="584" type="curve" smooth="yes"/>
			<point x="159" y="584"/>
			<point x="137" y="618"/>
			<point x="137" y="651" type="curve" smooth="yes"/>
			<point x="137" y="685"/>
			<point x="160" y="717"/>
			<point x="200" y="717" type="curve" smooth="yes"/>
			<point x="241" y="717"/>
			<point x="263" y="685"/>
			<point x="263" y="651" type="curve" smooth="yes"/>
			<point x="263" y="618"/>
			<point x="240" y="584"/>
		</contour>
		<contour>
			<point x="200" y="550" type="curve" smooth="yes"/>
			<point x="253" y="550"/>
			<point x="304" y="588"/>
			<point x="304" y="651" type="curve" smooth="yes"/>
			<point x="304" y="716"/>
			<point x="253" y="751"/>
			<point x="200" y="751" type="curve" smooth="yes"/>
			<point x="147" y="751"/>
			<point x="96" y="713"/>
			<point x="96" y="651" type="curve" smooth="yes"/>
			<point x="96" y="586"/>
			<point x="147" y="550"/>
		</contour>
	</outline>
</glyph>
<glyph name="emdash" format="1">
	<unicode hex="2014"/>
	<advance width="810"/>
	<outline>
		<contour>
			<point x="40" y="223" type="line"/>
			<point x="770" y="223" type="line"/>
			<point x="770" y="279" type="line"/>
			<point x="40" y="279" type="line"/>
		</contour>
	</outline>
</glyph>
<glyph name="quoteleft" format="1">
	<unicode hex="2018"/>
	<advance width="212"/>
	<outline>
		<contour>
			<point x="38" y="534" type="curve" smooth="yes"/>
			<point x="38" y="509"/>
			<point x="43" y="485"/>
			<point x="51" y="464" type="curve"/>
			<point x="67" y="449"/>
			<point x="85" y="444"/>
			<point x="105" y="444" type="curve" smooth="yes"/>
			<point x="140" y="444"/>
			<point x="162" y="462"/>
			<point x="162" y="502" type="curve" smooth="yes"/>
			<point x="162" y="527"/>
			<point x="153" y="550"/>
			<point x="122" y="577" type="curve" smooth="yes"/>
			<point x="72" y="621" type="line"/>
			<point x="83" y="593" type="line"/>
			<point x="112" y="661"/>
			<point x="130" y="683"/>
			<point x="195" y="729" type="curve"/>
			<point x="179" y="750" type="line"/>
			<point x="103" y="704"/>
			<point x="38" y="622"/>
		</contour>
	</outline>
</glyph>
<glyph name="dagger" format="1">
	<unicode hex="2020"/>
	<advance width="510"/>
	<outline>
		<contour>
			<point x="40" y="482" type="curve" smooth="yes"/>
			<point x="40" y="457"/>
			<point x="54" y="442"/>
			<point x="87" y="442" type="curve" smooth="yes"/>
			<point x="113" y="442"/>
			<point x="154" y="451"/>
			<point x="186" y="456" type="curve" smooth="yes"/>
			<point x="255" y="471" type="line"/>
			<point x="255" y="493" type="line"/>
			<point x="186" y="508" type="line" smooth="yes"/>
			<point x="154" y="513"/>
			<point x="113" y="522"/>
			<point x="87" y="522" type="curve" smooth="yes"/>
			<point x="54" y="522"/>
			<point x="40" y="507"/>
		</contour>
		<contour>
			<point x="220" y="306" type="curve" smooth="yes"/>
			<point x="220" y="270"/>
			<point x="226" y="141"/>
			<point x="247" y="-70" type="curve"/>
			<point x="263" y="-70" type="line"/>
			<point x="284" y="141"/>
			<point x="291" y="269"/>
			<point x="291" y="305" type="curve" smooth="yes"/>
			<point x="291" y="370"/>
			<point x="278" y="409"/>
			<point x="266" y="482" type="curve"/>
			<point x="244" y="482" type="line"/>
			<point x="232" y="409"/>
			<point x="220" y="369"/>
		</contour>
		<contour>
			<point x="255" y="717" type="curve" smooth="yes"/>
			<point x="230" y="717"/>
			<point x="215" y="703"/>
			<point x="215" y="671" type="curve" smooth="yes"/>
			<point x="215" y="641"/>
			<point x="225" y="579"/>
			<point x="230" y="551" type="curve" smooth="yes"/>
			<point x="243" y="482" type="line"/>
			<point x="267" y="482" type="line"/>
			<point x="280" y="551" type="line" smooth="yes"/>
			<point x="285" y="579"/>
			<point x="295" y="641"/>
			<point x="295" y="671" type="curve" smooth="yes"/>
			<point x="295" y="703"/>
			<point x="280" y="717"/>
		</contour>
		<contour>
			<point x="470" y="482" type="curve" smooth="yes"/>
			<point x="470" y="507"/>
			<point x="456" y="522"/>
			<point x="423" y="522" type="curve" smooth="yes"/>
			<point x="397" y="522"/>
			<point x="356" y="513"/>
			<point x="324" y="508" type="curve" smooth="yes"/>
			<point x="255" y="493" type="line"/>
			<point x="255" y="471" type="line"/>
			<point x="324" y="456" type="line" smooth="yes"/>
			<point x="356" y="451"/>
			<point x="397" y="442"/>
			<point x="423" y="442" type="curve" smooth="yes"/>
			<point x="456" y="442"/>
			<point x="470" y="457"/>
		</contour>
	</outline>
</glyph>
<glyph name="daggerdbl" format="1">
	<unicode hex="2021"/>
	<advance width="510"/>
	<outline>
		<contour>
			<point x="40" y="145" type="curve" smooth="yes"/>
			<point x="40" y="120"/>
			<point x="54" y="105"/>
			<point x="87" y="105" type="curve" smooth="yes"/>
			<point x="113" y="105"/>
			<point x="154" y="114"/>
			<point x="186" y="119" type="curve" smooth="yes"/>
			<point x="255" y="134" type="line"/>
			<point x="255" y="156" type="line"/>
			<point x="186" y="171" type="line" smooth="yes"/>
			<point x="154" y="176"/>
			<point x="113" y="185"/>
			<point x="87" y="185" type="curve" smooth="yes"/>
			<point x="54" y="185"/>
			<point x="40" y="170"/>
		</contour>
		<contour>
			<point x="470" y="145" type="curve" smooth="yes"/>
			<point x="470" y="170"/>
			<point x="456" y="185"/>
			<point x="423" y="185" type="curve" smooth="yes"/>
			<point x="397" y="185"/>
			<point x="356" y="176"/>
			<point x="324" y="171" type="curve" smooth="yes"/>
			<point x="255" y="156" type="line"/>
			<point x="255" y="134" type="line"/>
			<point x="324" y="119" type="line" smooth="yes"/>
			<point x="356" y="114"/>
			<point x="397" y="105"/>
			<point x="423" y="105" type="curve" smooth="yes"/>
			<point x="456" y="105"/>
			<point x="470" y="120"/>
		</contour>
		<contour>
			<point x="255" y="-90" type="curve" smooth="yes"/>
			<point x="280" y="-90"/>
			<point x="295" y="-76"/>
			<point x="295" y="-44" type="curve" smooth="yes"/>
			<point x="295" y="-14"/>
			<point x="285" y="48"/>
			<point x="280" y="76" type="curve" smooth="yes"/>
			<point x="267" y="145" type="line"/>
			<point x="243" y="145" type="line"/>
			<point x="230" y="76" type="line" smooth="yes"/>
			<point x="225" y="48"/>
			<point x="215" y="-14"/>
			<point x="215" y="-44" type="curve" smooth="yes"/>
			<point x="215" y="-76"/>
			<point x="230" y="-90"/>
		</contour>
		<contour>
			<point x="470" y="482" type="curve" smooth="yes"/>
			<point x="470" y="507"/>
			<point x="456" y="522"/>
			<point x="423" y="522" type="curve" smooth="yes"/>
			<point x="397" y="522"/>
			<point x="356" y="513"/>
			<point x="324" y="508" type="curve" smooth="yes"/>
			<point x="255" y="493" type="line"/>
			<point x="255" y="471" type="line"/>
			<point x="324" y="456" type="line" smooth="yes"/>
			<point x="356" y="451"/>
			<point x="397" y="442"/>
			<point x="423" y="442" type="curve" smooth="yes"/>
			<point x="456" y="442"/>
			<point x="470" y="457"/>
		</contour>
		<contour>
			<point x="255" y="717" type="curve" smooth="yes"/>
			<point x="230" y="717"/>
			<point x="215" y="703"/>
			<point x="215" y="671" type="curve" smooth="yes"/>
			<point x="215" y="641"/>
			<point x="225" y="579"/>
			<point x="230" y="551" type="curve" smooth="yes"/>
			<point x="243" y="482" type="line"/>
			<point x="267" y="482" type="line"/>
			<point x="280" y="551" type="line" smooth="yes"/>
			<point x="285" y="579"/>
			<point x="295" y="641"/>
			<point x="295" y="671" type="curve" smooth="yes"/>
			<point x="295" y="703"/>
			<point x="280" y="717"/>
		</contour>
		<contour>
			<point x="40" y="482" type="curve" smooth="yes"/>
			<point x="40" y="457"/>
			<point x="54" y="442"/>
			<point x="87" y="442" type="curve" smooth="yes"/>
			<point x="113" y="442"/>
			<point x="154" y="451"/>
			<point x="186" y="456" type="curve" smooth="yes"/>
			<point x="255" y="471" type="line"/>
			<point x="255" y="493" type="line"/>
			<point x="186" y="508" type="line" smooth="yes"/>
			<point x="154" y="513"/>
			<point x="113" y="522"/>
			<point x="87" y="522" type="curve" smooth="yes"/>
			<point x="54" y="522"/>
			<point x="40" y="507"/>
		</contour>
		<contour>
			<point x="291" y="314" type="curve" smooth="yes"/>
			<point x="291" y="373"/>
			<point x="282" y="410"/>
			<point x="266" y="482" type="curve"/>
			<point x="244" y="482" type="line"/>
			<point x="228" y="410"/>
			<point x="220" y="372"/>
			<point x="220" y="314" type="curve" smooth="yes"/>
			<point x="220" y="256"/>
			<point x="228" y="218"/>
			<point x="244" y="145" type="curve"/>
			<point x="266" y="145" type="line"/>
			<point x="282" y="218"/>
			<point x="291" y="255"/>
		</contour>
	</outline>
</glyph>
<glyph name="guilsinglleft" format="1">
	<unicode hex="2039"/>
	<advance width="282"/>
	<outline>
		<contour>
			<point x="236" y="54" type="line"/>
			<point x="254" y="75" type="line"/>
			<point x="91" y="272" type="line"/>
			<point x="91" y="233" type="line"/>
			<point x="254" y="430" type="line"/>
			<point x="236" y="451" type="line"/>
			<point x="30" y="279" type="line"/>
			<point x="30" y="226" type="line"/>
		</contour>
	</outline>
</glyph>
<glyph name="litre" format="1">
	<unicode hex="2113"/>
	<advance width="462"/>
	<outline>
		<contour>
			<point x="300" y="-13" type="curve" smooth="yes"/>
			<point x="372" y="-13"/>
			<point x="424" y="25"/>
			<point x="462" y="65" type="curve"/>
			<point x="440" y="97" type="line"/>
			<point x="410" y="71"/>
			<point x="374" y="43"/>
			<point x="319" y="43" type="curve" smooth="yes"/>
			<point x="229" y="43"/>
			<point x="161" y="122"/>
			<point x="161" y="377" type="curve" smooth="yes"/>
			<point x="161" y="649"/>
			<point x="217" y="712"/>
			<point x="271" y="712" type="curve" smooth="yes"/>
			<point x="314" y="712"/>
			<point x="341" y="676"/>
			<point x="341" y="587" type="curve" smooth="yes"/>
			<point x="341" y="408"/>
			<point x="245" y="222"/>
			<point x="33" y="63" type="curve"/>
			<point x="57" y="31" type="line"/>
			<point x="281" y="192"/>
			<point x="416" y="393"/>
			<point x="416" y="575" type="curve" smooth="yes"/>
			<point x="416" y="688"/>
			<point x="362" y="750"/>
			<point x="274" y="750" type="curve" smooth="yes"/>
			<point x="175" y="750"/>
			<point x="81" y="662"/>
			<point x="81" y="365" type="curve" smooth="yes"/>
			<point x="81" y="99"/>
			<point x="175" y="-13"/>
		</contour>
	</outline>
</glyph>
<glyph name="trademark" format="1">
	<unicode hex="2122"/>
	<advance width="719"/>
	<outline>
		<contour>
			<point x="347" y="670" type="line"/>
			<point x="347" y="376" type="line"/>
			<point x="373" y="376" type="line"/>
			<point x="373" y="670" type="line"/>
		</contour>
		<contour>
			<point x="313" y="670" type="line"/>
			<point x="313" y="646" type="line"/>
			<point x="372" y="640" type="line"/>
			<point x="340" y="665" type="line"/>
			<point x="476" y="376" type="line"/>
			<point x="488" y="376" type="line"/>
			<point x="622" y="670" type="line"/>
			<point x="596" y="670" type="line"/>
			<point x="494" y="456" type="line"/>
			<point x="506" y="457" type="line"/>
			<point x="401" y="670" type="line"/>
		</contour>
		<contour>
			<point x="615" y="640" type="line"/>
			<point x="626" y="640" type="line"/>
			<point x="689" y="646" type="line"/>
			<point x="689" y="670" type="line"/>
			<point x="615" y="670" type="line"/>
		</contour>
		<contour>
			<point x="589" y="376" type="line"/>
			<point x="652" y="376" type="line"/>
			<point x="652" y="670" type="line"/>
			<point x="605" y="670" type="line"/>
			<point x="589" y="629" type="line"/>
		</contour>
		<contour>
			<point x="615" y="407" type="line"/>
			<point x="552" y="400" type="line"/>
			<point x="552" y="376" type="line"/>
			<point x="689" y="376" type="line"/>
			<point x="689" y="400" type="line"/>
			<point x="626" y="407" type="line"/>
		</contour>
		<contour>
			<point x="354" y="407" type="line"/>
			<point x="307" y="400" type="line"/>
			<point x="307" y="376" type="line"/>
			<point x="414" y="376" type="line"/>
			<point x="414" y="400" type="line"/>
			<point x="365" y="407" type="line"/>
		</contour>
		<contour>
			<point x="132" y="407" type="line"/>
			<point x="69" y="400" type="line"/>
			<point x="69" y="376" type="line"/>
			<point x="215" y="376" type="line"/>
			<point x="215" y="400" type="line"/>
			<point x="153" y="407" type="line"/>
		</contour>
		<contour>
			<point x="111" y="376" type="line"/>
			<point x="174" y="376" type="line"/>
			<point x="174" y="670" type="line"/>
			<point x="111" y="670" type="line"/>
		</contour>
		<contour>
			<point x="258" y="644" type="line"/>
			<point x="234" y="670" type="line"/>
			<point x="246" y="582" type="line"/>
			<point x="275" y="582" type="line"/>
			<point x="273" y="670" type="line"/>
			<point x="12" y="670" type="line"/>
			<point x="10" y="582" type="line"/>
			<point x="39" y="582" type="line"/>
			<point x="51" y="670" type="line"/>
			<point x="27" y="644" type="line"/>
		</contour>
	</outline>
</glyph>
<glyph name="Omega.math" format="1">
	<unicode hex="2126"/>
	<advance width="726"/>
	<outline>
		<contour>
			<point x="91" y="170" type="line"/>
			<point x="40" y="170" type="line"/>
			<point x="50" y="0" type="line"/>
			<point x="314" y="0" type="line"/>
			<point x="314" y="50" type="line"/>
			<point x="265" y="70" type="line"/>
			<point x="75" y="70" type="line"/>
			<point x="135" y="0" type="line"/>
		</contour>
		<contour>
			<point x="635" y="170" type="line"/>
			<point x="591" y="0" type="line"/>
			<point x="651" y="70" type="line"/>
			<point x="461" y="70" type="line"/>
			<point x="412" y="50" type="line"/>
			<point x="412" y="0" type="line"/>
			<point x="676" y="0" type="line"/>
			<point x="686" y="170" type="line"/>
		</contour>
		<contour>
			<point x="363" y="642" type="curve" smooth="yes"/>
			<point x="486" y="642"/>
			<point x="563" y="531"/>
			<point x="563" y="377" type="curve" smooth="yes"/>
			<point x="563" y="254"/>
			<point x="503" y="134"/>
			<point x="412" y="61" type="curve"/>
			<point x="412" y="0" type="line"/>
			<point x="465" y="0" type="line"/>
			<point x="465" y="71" type="line"/>
			<point x="570" y="141"/>
			<point x="655" y="247"/>
			<point x="655" y="378" type="curve" smooth="yes"/>
			<point x="655" y="574"/>
			<point x="516" y="685"/>
			<point x="363" y="685" type="curve" smooth="yes"/>
			<point x="210" y="685"/>
			<point x="71" y="574"/>
			<point x="71" y="379" type="curve" smooth="yes"/>
			<point x="71" y="245"/>
			<point x="159" y="141"/>
			<point x="261" y="71" type="curve"/>
			<point x="261" y="0" type="line"/>
			<point x="314" y="0" type="line"/>
			<point x="314" y="61" type="line"/>
			<point x="223" y="134"/>
			<point x="163" y="254"/>
			<point x="163" y="377" type="curve" smooth="yes"/>
			<point x="163" y="531"/>
			<point x="240" y="642"/>
		</contour>
	</outline>
</glyph>
<glyph name="partialdiff" format="1">
	<unicode hex="2202"/>
	<advance width="528"/>
	<outline>
		<contour>
			<point x="40" y="176" type="curve" smooth="yes"/>
			<point x="40" y="57"/>
			<point x="125" y="-13"/>
			<point x="230" y="-13" type="curve" smooth="yes"/>
			<point x="389" y="-13"/>
			<point x="497" y="145"/>
			<point x="497" y="381" type="curve" smooth="yes"/>
			<point x="497" y="555"/>
			<point x="427" y="660"/>
			<point x="289" y="660" type="curve" smooth="yes"/>
			<point x="230" y="660"/>
			<point x="178" y="639"/>
			<point x="135" y="593" type="curve"/>
			<point x="150" y="572" type="line"/>
			<point x="183" y="603"/>
			<point x="228" y="622"/>
			<point x="275" y="622" type="curve" smooth="yes"/>
			<point x="363" y="622"/>
			<point x="407" y="541"/>
			<point x="407" y="371" type="curve" smooth="yes"/>
			<point x="407" y="156"/>
			<point x="337" y="25"/>
			<point x="238" y="25" type="curve" smooth="yes"/>
			<point x="178" y="25"/>
			<point x="128" y="80"/>
			<point x="128" y="173" type="curve" smooth="yes"/>
			<point x="128" y="300"/>
			<point x="195" y="368"/>
			<point x="283" y="368" type="curve" smooth="yes"/>
			<point x="320" y="368"/>
			<point x="369" y="358"/>
			<point x="411" y="306" type="curve"/>
			<point x="418" y="337" type="line"/>
			<point x="373" y="383"/>
			<point x="319" y="406"/>
			<point x="267" y="406" type="curve" smooth="yes"/>
			<point x="151" y="406"/>
			<point x="40" y="322"/>
		</contour>
	</outline>
</glyph>
<glyph name="minus" format="1">
	<unicode hex="2212"/>
	<advance width="530"/>
	<outline>
		<contour>
			<point x="501" y="309" type="line"/>
			<point x="501" y="351" type="line"/>
			<point x="29" y="351" type="line"/>
			<point x="29" y="309" type="line"/>
		</contour>
	</outline>
</glyph>
<glyph name="radical" format="1">
	<unicode hex="221A"/>
	<advance width="557"/>
	<outline>
		<contour>
			<point x="128" y="333" type="line"/>
			<point x="294" y="-100" type="line"/>
			<point x="328" y="-100" type="line"/>
			<point x="541" y="782" type="line"/>
			<point x="478" y="782" type="line"/>
			<point x="310" y="-40" type="line"/>
			<point x="342" y="-63" type="line"/>
			<point x="189" y="348" type="line"/>
			<point x="44" y="348" type="line"/>
			<point x="44" y="312" type="line"/>
			<point x="155" y="312" type="line"/>
		</contour>
	</outline>
</glyph>
<glyph name="notequal" format="1">
	<unicode hex="2260"/>
	<advance width="530"/>
	<outline>
		<contour>
			<point x="123" y="60" type="line"/>
			<point x="421" y="588" type="line"/>
			<point x="397" y="600" type="line"/>
			<point x="99" y="71" type="line"/>
		</contour>
		<component base="minus" yOffset="-100"/>
		<component base="minus" yOffset="100"/>
	</outline>
</glyph>
<glyph name="lessequal" format="1">
	<unicode hex="2264"/>
	<advance width="530"/>
	<outline>
		<contour>
			<point x="501" y="0" type="line"/>
			<point x="501" y="41" type="line"/>
			<point x="29" y="41" type="line"/>
			<point x="29" y="0" type="line"/>
		</contour>
		<contour>
			<point x="45" y="314" type="line"/>
			<point x="449" y="105" type="line"/>
			<point x="473" y="142" type="line"/>
			<point x="101" y="328" type="line"/>
			<point x="101" y="331" type="line"/>
			<point x="473" y="517" type="line"/>
			<point x="449" y="554" type="line"/>
			<point x="45" y="346" type="line"/>
		</contour>
	</outline>
</glyph>
<glyph name="lozenge" format="1">
	<unicode hex="25CA"/>
	<advance width="580"/>
	<outline>
		<contour>
			<point x="458" y="325" type="line"/>
			<point x="290" y="4" type="line"/>
			<point x="122" y="325" type="line"/>
			<point x="290" y="641" type="line"/>
		</contour>
		<contour>
			<point x="495" y="325" type="line"/>
			<point x="296" y="700" type="line"/>
			<point x="284" y="700" type="line"/>
			<point x="85" y="325" type="line"/>
			<point x="284" y="-55" type="line"/>
			<point x="296" y="-55" type="line"/>
		</contour>
	</outline>
</glyph>
<glyph name="f_i" format="1">
	<unicode hex="FB01"/>
	<advance width="616"/>
	<outline>
		<contour>
			<point x="116" y="0" type="curve"/>
			<point x="202" y="0" type="line"/>
			<point x="200" y="70"/>
			<point x="199" y="140"/>
			<point x="199" y="210" type="curve" smooth="yes"/>
			<point x="199" y="442" type="line"/>
			<point x="191" y="561"/>
			<point x="205" y="633"/>
			<point x="243" y="672" type="curve" smooth="yes"/>
			<point x="266" y="698"/>
			<point x="307" y="714"/>
			<point x="355" y="714" type="curve"/>
			<point x="348" y="729" type="line"/>
			<point x="404" y="651" type="line" smooth="yes"/>
			<point x="422" y="626"/>
			<point x="441" y="612"/>
			<point x="466" y="612" type="curve" smooth="yes"/>
			<point x="492" y="612"/>
			<point x="510" y="628"/>
			<point x="515" y="649" type="curve"/>
			<point x="515" y="710"/>
			<point x="447" y="750"/>
			<point x="359" y="750" type="curve" smooth="yes"/>
			<point x="304" y="750"/>
			<point x="247" y="736"/>
			<point x="200" y="693" type="curve" smooth="yes"/>
			<point x="145" y="643"/>
			<point x="129" y="580"/>
			<point x="119" y="465" type="curve"/>
			<point x="148" y="480" type="line"/>
			<point x="35" y="465" type="line"/>
			<point x="35" y="435" type="line"/>
			<point x="119" y="435" type="line"/>
			<point x="119" y="210" type="line" smooth="yes"/>
			<point x="119" y="140"/>
			<point x="118" y="70"/>
		</contour>
		<contour>
			<point x="36" y="0" type="line"/>
			<point x="292" y="0" type="line"/>
			<point x="292" y="27" type="line"/>
			<point x="178" y="44" type="line"/>
			<point x="149" y="44" type="line"/>
			<point x="36" y="27" type="line"/>
		</contour>
		<contour>
			<point x="159" y="435" type="line"/>
			<point x="477" y="435" type="line"/>
			<point x="477" y="474" type="line"/>
			<point x="159" y="474" type="line"/>
		</contour>
		<contour>
			<point x="429" y="0" type="curve"/>
			<point x="515" y="0" type="line"/>
			<point x="513" y="45"/>
			<point x="512" y="148"/>
			<point x="512" y="210" type="curve" smooth="yes"/>
			<point x="512" y="347" type="line"/>
			<point x="515" y="478" type="line"/>
			<point x="502" y="487" type="line"/>
			<point x="349" y="465" type="line"/>
			<point x="349" y="437" type="line"/>
			<point x="429" y="433" type="line"/>
			<point x="431" y="382"/>
			<point x="432" y="343"/>
			<point x="432" y="273" type="curve" smooth="yes"/>
			<point x="432" y="210" type="line" smooth="yes"/>
			<point x="432" y="148"/>
			<point x="431" y="45"/>
		</contour>
		<contour>
			<point x="354" y="0" type="line"/>
			<point x="584" y="0" type="line"/>
			<point x="584" y="27" type="line"/>
			<point x="484" y="44" type="line"/>
			<point x="464" y="44" type="line"/>
			<point x="354" y="27" type="line"/>
		</contour>
	</outline>
</glyph>
<glyph name="five.cap" format="1">
	<advance width="497"/>
	<outline>
		<contour>
			<point x="99" y="374" type="line"/>
			<point x="134" y="374" type="line"/>
			<point x="152" y="635" type="line"/>
			<point x="132" y="590" type="line"/>
			<point x="437" y="590" type="line"/>
			<point x="437" y="670" type="line"/>
			<point x="112" y="670" type="line"/>
			<point x="91" y="360" type="line"/>
			<point x="119" y="353" type="line"/>
			<point x="149" y="359"/>
			<point x="184" y="364"/>
			<point x="211" y="364" type="curve" smooth="yes"/>
			<point x="307" y="364"/>
			<point x="370" y="303"/>
			<point x="370" y="199" type="curve" smooth="yes"/>
			<point x="370" y="92"/>
			<point x="317" y="25"/>
			<point x="222" y="25" type="curve" smooth="yes"/>
			<point x="190" y="25"/>
			<point x="160" y="30"/>
			<point x="125" y="45" type="curve"/>
			<point x="165" y="19" type="line"/>
			<point x="145" y="93" type="line" smooth="yes"/>
			<point x="131" y="145"/>
			<point x="118" y="160"/>
			<point x="88" y="160" type="curve" smooth="yes"/>
			<point x="65" y="160"/>
			<point x="47" y="149"/>
			<point x="38" y="127" type="curve"/>
			<point x="60" y="33"/>
			<point x="123" y="-13"/>
			<point x="224" y="-13" type="curve" smooth="yes"/>
			<point x="363" y="-13"/>
			<point x="455" y="76"/>
			<point x="455" y="205" type="curve" smooth="yes"/>
			<point x="455" y="342"/>
			<point x="366" y="416"/>
			<point x="237" y="416" type="curve" smooth="yes"/>
			<point x="188" y="416"/>
			<point x="146" y="407"/>
			<point x="99" y="389" type="curve"/>
		</contour>
	</outline>
</glyph>
<glyph name="four.cap" format="1">
	<advance width="497"/>
	<outline>
		<contour>
			<point x="482" y="214" type="line"/>
			<point x="482" y="270" type="line"/>
			<point x="73" y="270" type="line"/>
			<point x="67" y="258" type="line"/>
			<point x="317" y="619" type="line"/>
			<point x="297" y="619" type="line"/>
			<point x="297" y="0" type="line"/>
			<point x="377" y="0" type="line"/>
			<point x="377" y="680" type="line"/>
			<point x="322" y="680" type="line"/>
			<point x="28" y="260" type="line"/>
			<point x="28" y="214" type="line"/>
		</contour>
	</outline>
</glyph>
<glyph name="four.lf" format="1">
	<advance width="495"/>
	<outline>
		<contour>
			<point x="487" y="201" type="line"/>
			<point x="487" y="257" type="line"/>
			<point x="78" y="257" type="line"/>
			<point x="72" y="245" type="line"/>
			<point x="322" y="594" type="line"/>
			<point x="302" y="594" type="line"/>
			<point x="302" y="0" type="line"/>
			<point x="382" y="0" type="line"/>
			<point x="382" y="655" type="line"/>
			<point x="327" y="655" type="line"/>
			<point x="33" y="247" type="line"/>
			<point x="33" y="201" type="line"/>
		</contour>
	</outline>
</glyph>
<glyph name="one.lf" format="1">
	<advance width="428"/>
	<outline>
		<contour>
			<point x="65" y="604" type="line"/>
			<point x="65" y="573" type="line"/>
			<point x="189" y="581" type="line"/>
			<point x="189" y="211" type="line" smooth="yes"/>
			<point x="189" y="141"/>
			<point x="188" y="70"/>
			<point x="186" y="0" type="curve"/>
			<point x="272" y="0" type="line"/>
			<point x="270" y="70"/>
			<point x="269" y="141"/>
			<point x="269" y="211" type="curve" smooth="yes"/>
			<point x="269" y="503" type="line"/>
			<point x="273" y="646" type="line"/>
			<point x="259" y="656" type="line"/>
		</contour>
		<contour>
			<point x="259" y="48" type="line"/>
			<point x="199" y="48" type="line"/>
			<point x="64" y="27" type="line"/>
			<point x="64" y="0" type="line"/>
			<point x="392" y="0" type="line"/>
			<point x="392" y="27" type="line"/>
		</contour>
	</outline>
</glyph>
<glyph name="three.cap" format="1">
	<advance width="497"/>
	<outline>
		<contour>
			<point x="169" y="376" type="line"/>
			<point x="169" y="334" type="line"/>
			<point x="218" y="334" type="line" smooth="yes"/>
			<point x="321" y="334"/>
			<point x="372" y="272"/>
			<point x="372" y="177" type="curve" smooth="yes"/>
			<point x="372" y="89"/>
			<point x="317" y="25"/>
			<point x="223" y="25" type="curve" smooth="yes"/>
			<point x="200" y="25"/>
			<point x="168" y="28"/>
			<point x="133" y="42" type="curve"/>
			<point x="173" y="13" type="line"/>
			<point x="152" y="89" type="line" smooth="yes"/>
			<point x="138" y="138"/>
			<point x="127" y="160"/>
			<point x="94" y="160" type="curve" smooth="yes"/>
			<point x="72" y="160"/>
			<point x="56" y="150"/>
			<point x="44" y="128" type="curve"/>
			<point x="62" y="28"/>
			<point x="138" y="-13"/>
			<point x="234" y="-13" type="curve" smooth="yes"/>
			<point x="368" y="-13"/>
			<point x="457" y="70"/>
			<point x="457" y="177" type="curve" smooth="yes"/>
			<point x="457" y="276"/>
			<point x="393" y="351"/>
			<point x="249" y="361" type="curve"/>
			<point x="249" y="344" type="line"/>
			<point x="369" y="366"/>
			<point x="436" y="430"/>
			<point x="436" y="522" type="curve" smooth="yes"/>
			<point x="436" y="620"/>
			<point x="363" y="683"/>
			<point x="249" y="683" type="curve" smooth="yes"/>
			<point x="155" y="683"/>
			<point x="80" y="641"/>
			<point x="61" y="556" type="curve"/>
			<point x="70" y="528"/>
			<point x="89" y="519"/>
			<point x="111" y="519" type="curve" smooth="yes"/>
			<point x="146" y="519"/>
			<point x="157" y="540"/>
			<point x="169" y="583" type="curve" smooth="yes"/>
			<point x="188" y="652" type="line"/>
			<point x="145" y="631" type="line"/>
			<point x="180" y="642"/>
			<point x="209" y="645"/>
			<point x="230" y="645" type="curve" smooth="yes"/>
			<point x="309" y="645"/>
			<point x="354" y="601"/>
			<point x="354" y="517" type="curve" smooth="yes"/>
			<point x="354" y="429"/>
			<point x="300" y="376"/>
			<point x="209" y="376" type="curve" smooth="yes"/>
		</contour>
	</outline>
</glyph>
<glyph name="three.lf" format="1">
	<advance width="501"/>
	<outline>
		<contour>
			<point x="162" y="362" type="line"/>
			<point x="162" y="320" type="line"/>
			<point x="211" y="320" type="line" smooth="yes"/>
			<point x="314" y="320"/>
			<point x="365" y="264"/>
			<point x="365" y="172" type="curve" smooth="yes"/>
			<point x="365" y="80"/>
			<point x="315" y="25"/>
			<point x="216" y="25" type="curve" smooth="yes"/>
			<point x="193" y="25"/>
			<point x="161" y="28"/>
			<point x="126" y="42" type="curve"/>
			<point x="166" y="13" type="line"/>
			<point x="145" y="89" type="line" smooth="yes"/>
			<point x="131" y="138"/>
			<point x="120" y="160"/>
			<point x="87" y="160" type="curve" smooth="yes"/>
			<point x="65" y="160"/>
			<point x="49" y="150"/>
			<point x="37" y="128" type="curve"/>
			<point x="55" y="28"/>
			<point x="131" y="-13"/>
			<point x="227" y="-13" type="curve" smooth="yes"/>
			<point x="361" y="-13"/>
			<point x="450" y="70"/>
			<point x="450" y="179" type="curve" smooth="yes"/>
			<point x="450" y="270"/>
			<point x="386" y="337"/>
			<point x="242" y="347" type="curve"/>
			<point x="242" y="330" type="line"/>
			<point x="362" y="352"/>
			<point x="429" y="414"/>
			<point x="429" y="505" type="curve" smooth="yes"/>
			<point x="429" y="598"/>
			<point x="356" y="660"/>
			<point x="242" y="660" type="curve" smooth="yes"/>
			<point x="148" y="660"/>
			<point x="73" y="618"/>
			<point x="54" y="533" type="curve"/>
			<point x="63" y="505"/>
			<point x="82" y="496"/>
			<point x="104" y="496" type="curve" smooth="yes"/>
			<point x="139" y="496"/>
			<point x="150" y="517"/>
			<point x="162" y="560" type="curve" smooth="yes"/>
			<point x="181" y="629" type="line"/>
			<point x="138" y="608" type="line"/>
			<point x="173" y="619"/>
			<point x="202" y="622"/>
			<point x="223" y="622" type="curve" smooth="yes"/>
			<point x="302" y="622"/>
			<point x="347" y="579"/>
			<point x="347" y="503" type="curve" smooth="yes"/>
			<point x="347" y="414"/>
			<point x="293" y="362"/>
			<point x="202" y="362" type="curve" smooth="yes"/>
		</contour>
	</outline>
</glyph>
<glyph name="two.cap" format="1">
	<advance width="497"/>
	<outline>
		<contour>
			<point x="49" y="0" type="line"/>
			<point x="457" y="0" type="line"/>
			<point x="457" y="80" type="line"/>
			<point x="86" y="80" type="line"/>
			<point x="91" y="60" type="line"/>
			<point x="142" y="113"/>
			<point x="193" y="163"/>
			<point x="224" y="196" type="curve" smooth="yes"/>
			<point x="379" y="358"/>
			<point x="428" y="419"/>
			<point x="428" y="505" type="curve" smooth="yes"/>
			<point x="428" y="610"/>
			<point x="372" y="683"/>
			<point x="244" y="683" type="curve" smooth="yes"/>
			<point x="144" y="683"/>
			<point x="55" y="634"/>
			<point x="44" y="529" type="curve"/>
			<point x="55" y="509"/>
			<point x="72" y="497"/>
			<point x="94" y="497" type="curve" smooth="yes"/>
			<point x="122" y="497"/>
			<point x="138" y="516"/>
			<point x="151" y="564" type="curve" smooth="yes"/>
			<point x="175" y="652" type="line"/>
			<point x="130" y="628" type="line"/>
			<point x="161" y="640"/>
			<point x="201" y="645"/>
			<point x="221" y="645" type="curve" smooth="yes"/>
			<point x="294" y="645"/>
			<point x="342" y="589"/>
			<point x="342" y="502" type="curve" smooth="yes"/>
			<point x="342" y="421"/>
			<point x="295" y="342"/>
			<point x="197" y="232" type="curve" smooth="yes"/>
			<point x="153" y="182"/>
			<point x="102" y="123"/>
			<point x="49" y="64" type="curve"/>
		</contour>
	</outline>
</glyph>
<glyph name="two.lf" format="1">
	<advance width="507"/>
	<outline>
		<contour>
			<point x="57" y="0" type="line"/>
			<point x="465" y="0" type="line"/>
			<point x="465" y="80" type="line"/>
			<point x="94" y="80" type="line"/>
			<point x="99" y="60" type="line"/>
			<point x="150" y="107"/>
			<point x="200" y="153"/>
			<point x="233" y="185" type="curve" smooth="yes"/>
			<point x="391" y="334"/>
			<point x="436" y="403"/>
			<point x="436" y="490" type="curve" smooth="yes"/>
			<point x="436" y="590"/>
			<point x="380" y="660"/>
			<point x="252" y="660" type="curve" smooth="yes"/>
			<point x="152" y="660"/>
			<point x="63" y="611"/>
			<point x="52" y="506" type="curve"/>
			<point x="63" y="486"/>
			<point x="80" y="474"/>
			<point x="102" y="474" type="curve" smooth="yes"/>
			<point x="130" y="474"/>
			<point x="146" y="493"/>
			<point x="159" y="541" type="curve" smooth="yes"/>
			<point x="183" y="629" type="line"/>
			<point x="138" y="605" type="line"/>
			<point x="169" y="617"/>
			<point x="209" y="622"/>
			<point x="229" y="622" type="curve" smooth="yes"/>
			<point x="302" y="622"/>
			<point x="350" y="569"/>
			<point x="350" y="485" type="curve" smooth="yes"/>
			<point x="350" y="404"/>
			<point x="308" y="322"/>
			<point x="205" y="216" type="curve" smooth="yes"/>
			<point x="161" y="170"/>
			<point x="109" y="116"/>
			<point x="57" y="64" type="curve"/>
		</contour>
	</outline>
</glyph>
<glyph name="zero.lfslash" format="1">
	<advance width="500"/>
	<outline>
		<contour>
			<point x="42" y="20" type="line"/>
			<point x="68" y="6" type="line"/>
			<point x="124" y="95" type="line"/>
			<point x="107" y="126" type="line"/>
		</contour>
		<contour>
			<point x="134" y="99" type="line"/>
			<point x="387" y="505" type="line"/>
			<point x="376" y="544" type="line"/>
			<point x="117" y="130" type="line"/>
		</contour>
		<contour>
			<point x="397" y="509" type="line"/>
			<point x="459" y="608" type="line"/>
			<point x="432" y="622" type="line"/>
			<point x="386" y="548" type="line"/>
		</contour>
		<component base="zero.lf"/>
	</outline>
</glyph>
